<svg id="my-svg" width="100%" xmlns="http://www.w3.org/2000/svg" xmlns:xlink="http://www.w3.org/1999/xlink" class="flowchart" style="max-width: 3410.36px; background-color: white;" viewBox="0 0 3410.359375 1405.109375" role="graphics-document document" aria-roledescription="flowchart-v2"><style>#my-svg{font-family:"trebuchet ms",verdana,arial,sans-serif;font-size:16px;fill:#333;}@keyframes edge-animation-frame{from{stroke-dashoffset:0;}}@keyframes dash{to{stroke-dashoffset:0;}}#my-svg .edge-animation-slow{stroke-dasharray:9,5!important;stroke-dashoffset:900;animation:dash 50s linear infinite;stroke-linecap:round;}#my-svg .edge-animation-fast{stroke-dasharray:9,5!important;stroke-dashoffset:900;animation:dash 20s linear infinite;stroke-linecap:round;}#my-svg .error-icon{fill:#552222;}#my-svg .error-text{fill:#552222;stroke:#552222;}#my-svg .edge-thickness-normal{stroke-width:1px;}#my-svg .edge-thickness-thick{stroke-width:3.5px;}#my-svg .edge-pattern-solid{stroke-dasharray:0;}#my-svg .edge-thickness-invisible{stroke-width:0;fill:none;}#my-svg .edge-pattern-dashed{stroke-dasharray:3;}#my-svg .edge-pattern-dotted{stroke-dasharray:2;}#my-svg .marker{fill:#333333;stroke:#333333;}#my-svg .marker.cross{stroke:#333333;}#my-svg svg{font-family:"trebuchet ms",verdana,arial,sans-serif;font-size:16px;}#my-svg p{margin:0;}#my-svg .label{font-family:"trebuchet ms",verdana,arial,sans-serif;color:#333;}#my-svg .cluster-label text{fill:#333;}#my-svg .cluster-label span{color:#333;}#my-svg .cluster-label span p{background-color:transparent;}#my-svg .label text,#my-svg span{fill:#333;color:#333;}#my-svg .node rect,#my-svg .node circle,#my-svg .node ellipse,#my-svg .node polygon,#my-svg .node path{fill:#ECECFF;stroke:#9370DB;stroke-width:1px;}#my-svg .rough-node .label text,#my-svg .node .label text,#my-svg .image-shape .label,#my-svg .icon-shape .label{text-anchor:middle;}#my-svg .node .katex path{fill:#000;stroke:#000;stroke-width:1px;}#my-svg .rough-node .label,#my-svg .node .label,#my-svg .image-shape .label,#my-svg .icon-shape .label{text-align:center;}#my-svg .node.clickable{cursor:pointer;}#my-svg .root .anchor path{fill:#333333!important;stroke-width:0;stroke:#333333;}#my-svg .arrowheadPath{fill:#333333;}#my-svg .edgePath .path{stroke:#333333;stroke-width:2.0px;}#my-svg .flowchart-link{stroke:#333333;fill:none;}#my-svg .edgeLabel{background-color:rgba(232,232,232, 0.8);text-align:center;}#my-svg .edgeLabel p{background-color:rgba(232,232,232, 0.8);}#my-svg .edgeLabel rect{opacity:0.5;background-color:rgba(232,232,232, 0.8);fill:rgba(232,232,232, 0.8);}#my-svg .labelBkg{background-color:rgba(232, 232, 232, 0.5);}#my-svg .cluster rect{fill:#ffffde;stroke:#aaaa33;stroke-width:1px;}#my-svg .cluster text{fill:#333;}#my-svg .cluster span{color:#333;}#my-svg div.mermaidTooltip{position:absolute;text-align:center;max-width:200px;padding:2px;font-family:"trebuchet ms",verdana,arial,sans-serif;font-size:12px;background:hsl(80, 100%, 96.2745098039%);border:1px solid #aaaa33;border-radius:2px;pointer-events:none;z-index:100;}#my-svg .flowchartTitleText{text-anchor:middle;font-size:18px;fill:#333;}#my-svg rect.text{fill:none;stroke-width:0;}#my-svg .icon-shape,#my-svg .image-shape{background-color:rgba(232,232,232, 0.8);text-align:center;}#my-svg .icon-shape p,#my-svg .image-shape p{background-color:rgba(232,232,232, 0.8);padding:2px;}#my-svg .icon-shape rect,#my-svg .image-shape rect{opacity:0.5;background-color:rgba(232,232,232, 0.8);fill:rgba(232,232,232, 0.8);}#my-svg .label-icon{display:inline-block;height:1em;overflow:visible;vertical-align:-0.125em;}#my-svg .node .label-icon path{fill:currentColor;stroke:revert;stroke-width:revert;}#my-svg :root{--mermaid-font-family:"trebuchet ms",verdana,arial,sans-serif;}</style><g><marker id="my-svg_flowchart-v2-pointEnd" class="marker flowchart-v2" viewBox="0 0 10 10" refX="5" refY="5" markerUnits="userSpaceOnUse" markerWidth="8" markerHeight="8" orient="auto"><path d="M 0 0 L 10 5 L 0 10 z" class="arrowMarkerPath" style="stroke-width: 1; stroke-dasharray: 1, 0;"/></marker><marker id="my-svg_flowchart-v2-pointStart" class="marker flowchart-v2" viewBox="0 0 10 10" refX="4.5" refY="5" markerUnits="userSpaceOnUse" markerWidth="8" markerHeight="8" orient="auto"><path d="M 0 5 L 10 10 L 10 0 z" class="arrowMarkerPath" style="stroke-width: 1; stroke-dasharray: 1, 0;"/></marker><marker id="my-svg_flowchart-v2-circleEnd" class="marker flowchart-v2" viewBox="0 0 10 10" refX="11" refY="5" markerUnits="userSpaceOnUse" markerWidth="11" markerHeight="11" orient="auto"><circle cx="5" cy="5" r="5" class="arrowMarkerPath" style="stroke-width: 1; stroke-dasharray: 1, 0;"/></marker><marker id="my-svg_flowchart-v2-circleStart" class="marker flowchart-v2" viewBox="0 0 10 10" refX="-1" refY="5" markerUnits="userSpaceOnUse" markerWidth="11" markerHeight="11" orient="auto"><circle cx="5" cy="5" r="5" class="arrowMarkerPath" style="stroke-width: 1; stroke-dasharray: 1, 0;"/></marker><marker id="my-svg_flowchart-v2-crossEnd" class="marker cross flowchart-v2" viewBox="0 0 11 11" refX="12" refY="5.2" markerUnits="userSpaceOnUse" markerWidth="11" markerHeight="11" orient="auto"><path d="M 1,1 l 9,9 M 10,1 l -9,9" class="arrowMarkerPath" style="stroke-width: 2; stroke-dasharray: 1, 0;"/></marker><marker id="my-svg_flowchart-v2-crossStart" class="marker cross flowchart-v2" viewBox="0 0 11 11" refX="-1" refY="5.2" markerUnits="userSpaceOnUse" markerWidth="11" markerHeight="11" orient="auto"><path d="M 1,1 l 9,9 M 10,1 l -9,9" class="arrowMarkerPath" style="stroke-width: 2; stroke-dasharray: 1, 0;"/></marker><g class="root"><g class="clusters"/><g class="edgePaths"><path d="M2287.07,47.5L2286.987,51.583C2286.904,55.667,2286.737,63.833,2286.654,71.417C2286.57,79,2286.57,86,2286.57,89.5L2286.57,93" id="L_ALERT_A1_0" class="edge-thickness-normal edge-pattern-solid edge-thickness-normal edge-pattern-solid flowchart-link" style=";" data-edge="true" data-et="edge" data-id="L_ALERT_A1_0" data-points="W3sieCI6MjI4Ny4wNzAzMTI1LCJ5Ijo0Ny41fSx7IngiOjIyODYuNTcwMzEyNSwieSI6NzJ9LHsieCI6MjI4Ni41NzAzMTI1LCJ5Ijo5N31d" marker-end="url(#my-svg_flowchart-v2-pointEnd)"/><path d="M2189.262,210.786L1924.885,233.171C1660.508,255.555,1131.754,300.324,867.377,332.209C603,364.094,603,383.094,603,392.594L603,402.094" id="L_A1_B1_0" class="edge-thickness-normal edge-pattern-solid edge-thickness-normal edge-pattern-solid flowchart-link" style=";" data-edge="true" data-et="edge" data-id="L_A1_B1_0" data-points="W3sieCI6MjE4OS4yNjI0MzYyMzQ3MjE1LCJ5IjoyMTAuNzg1ODczNzM0NzIxNDZ9LHsieCI6NjAzLCJ5IjozNDUuMDkzNzV9LHsieCI6NjAzLCJ5Ijo0MDYuMDkzNzV9XQ==" marker-end="url(#my-svg_flowchart-v2-pointEnd)"/><path d="M2203.061,224.584L2126.948,244.669C2050.836,264.754,1898.611,304.924,1822.499,332.509C1746.387,360.094,1746.387,375.094,1746.387,382.594L1746.387,390.094" id="L_A1_B2_0" class="edge-thickness-normal edge-pattern-solid edge-thickness-normal edge-pattern-solid flowchart-link" style=";" data-edge="true" data-et="edge" data-id="L_A1_B2_0" data-points="W3sieCI6MjIwMy4wNjA1MDQ2Njc2OCwieSI6MjI0LjU4Mzk0MjE2NzY4MDMzfSx7IngiOjE3NDYuMzg2NzE4NzUsInkiOjM0NS4wOTM3NX0seyJ4IjoxNzQ2LjM4NjcxODc1LCJ5IjozOTQuMDkzNzV9XQ==" marker-end="url(#my-svg_flowchart-v2-pointEnd)"/><path d="M2286.57,308.094L2286.57,314.26C2286.57,320.427,2286.57,332.76,2286.57,346.427C2286.57,360.094,2286.57,375.094,2286.57,382.594L2286.57,390.094" id="L_A1_B3_0" class="edge-thickness-normal edge-pattern-solid edge-thickness-normal edge-pattern-solid flowchart-link" style=";" data-edge="true" data-et="edge" data-id="L_A1_B3_0" data-points="W3sieCI6MjI4Ni41NzAzMTI1LCJ5IjozMDguMDkzNzV9LHsieCI6MjI4Ni41NzAzMTI1LCJ5IjozNDUuMDkzNzV9LHsieCI6MjI4Ni41NzAzMTI1LCJ5IjozOTQuMDkzNzV9XQ==" marker-end="url(#my-svg_flowchart-v2-pointEnd)"/><path d="M2368.61,226.055L2437.848,245.894C2507.087,265.734,2645.565,305.414,2714.804,330.754C2784.043,356.094,2784.043,367.094,2784.043,372.594L2784.043,378.094" id="L_A1_B4_0" class="edge-thickness-normal edge-pattern-solid edge-thickness-normal edge-pattern-solid flowchart-link" style=";" data-edge="true" data-et="edge" data-id="L_A1_B4_0" data-points="W3sieCI6MjM2OC42MDk1MDMwMjY4NywieSI6MjI2LjA1NDU1OTQ3MzEzMDF9LHsieCI6Mjc4NC4wNDI5Njg3NSwieSI6MzQ1LjA5Mzc1fSx7IngiOjI3ODQuMDQyOTY4NzUsInkiOjM4Mi4wOTM3NX1d" marker-end="url(#my-svg_flowchart-v2-pointEnd)"/><path d="M2378.76,215.904L2527.365,237.436C2675.97,258.967,2973.18,302.031,3121.785,333.062C3270.391,364.094,3270.391,383.094,3270.391,392.594L3270.391,402.094" id="L_A1_B5_0" class="edge-thickness-normal edge-pattern-solid edge-thickness-normal edge-pattern-solid flowchart-link" style=";" data-edge="true" data-et="edge" data-id="L_A1_B5_0" data-points="W3sieCI6MjM3OC43NTk3NTE4NzQ4OTE3LCJ5IjoyMTUuOTA0MzEwNjI1MTA4Mzd9LHsieCI6MzI3MC4zOTA2MjUsInkiOjM0NS4wOTM3NX0seyJ4IjozMjcwLjM5MDYyNSwieSI6NDA2LjA5Mzc1fV0=" marker-end="url(#my-svg_flowchart-v2-pointEnd)"/><path d="M603,484.094L603,492.26C603,500.427,603,516.76,603,528.427C603,540.094,603,547.094,603,550.594L603,554.094" id="L_B1_B1A_0" class="edge-thickness-normal edge-pattern-solid edge-thickness-normal edge-pattern-solid flowchart-link" style=";" data-edge="true" data-et="edge" data-id="L_B1_B1A_0" data-points="W3sieCI6NjAzLCJ5Ijo0ODQuMDkzNzV9LHsieCI6NjAzLCJ5Ijo1MzMuMDkzNzV9LHsieCI6NjAzLCJ5Ijo1NTguMDkzNzV9XQ==" marker-end="url(#my-svg_flowchart-v2-pointEnd)"/><path d="M495.473,752.567L435.894,776.655C376.315,800.743,257.158,848.918,197.579,887.924C138,926.93,138,956.766,138,971.684L138,986.602" id="L_B1A_B1B_0" class="edge-thickness-normal edge-pattern-solid edge-thickness-normal edge-pattern-solid flowchart-link" style=";" data-edge="true" data-et="edge" data-id="L_B1A_B1B_0" data-points="W3sieCI6NDk1LjQ3MzIwMDYxMjU1NzQzLCJ5Ijo3NTIuNTY2OTUwNjEyNTU3NH0seyJ4IjoxMzgsInkiOjg5Ny4wOTM3NX0seyJ4IjoxMzgsInkiOjk5MC42MDE1NjI1fV0=" marker-end="url(#my-svg_flowchart-v2-pointEnd)"/><path d="M138,1092.602L138,1108.186C138,1123.771,138,1154.94,138,1178.025C138,1201.109,138,1216.109,138,1223.609L138,1231.109" id="L_B1B_B1B_FIX_0" class="edge-thickness-normal edge-pattern-solid edge-thickness-normal edge-pattern-solid flowchart-link" style=";" data-edge="true" data-et="edge" data-id="L_B1B_B1B_FIX_0" data-points="W3sieCI6MTM4LCJ5IjoxMDkyLjYwMTU2MjV9LHsieCI6MTM4LCJ5IjoxMTg2LjEwOTM3NX0seyJ4IjoxMzgsInkiOjEyMzUuMTA5Mzc1fV0=" marker-end="url(#my-svg_flowchart-v2-pointEnd)"/><path d="M534.764,791.858L520.303,809.397C505.843,826.936,476.921,862.015,462.461,896.472C448,930.93,448,964.766,448,981.684L448,998.602" id="L_B1A_B1C_0" class="edge-thickness-normal edge-pattern-solid edge-thickness-normal edge-pattern-solid flowchart-link" style=";" data-edge="true" data-et="edge" data-id="L_B1A_B1C_0" data-points="W3sieCI6NTM0Ljc2Mzg0ODM5NjUwMTQsInkiOjc5MS44NTc1OTgzOTY1MDE0fSx7IngiOjQ0OCwieSI6ODk3LjA5Mzc1fSx7IngiOjQ0OCwieSI6MTAwMi42MDE1NjI1fV0=" marker-end="url(#my-svg_flowchart-v2-pointEnd)"/><path d="M448,1080.602L448,1098.186C448,1115.771,448,1150.94,448,1174.025C448,1197.109,448,1208.109,448,1213.609L448,1219.109" id="L_B1C_B1C_FIX_0" class="edge-thickness-normal edge-pattern-solid edge-thickness-normal edge-pattern-solid flowchart-link" style=";" data-edge="true" data-et="edge" data-id="L_B1C_B1C_FIX_0" data-points="W3sieCI6NDQ4LCJ5IjoxMDgwLjYwMTU2MjV9LHsieCI6NDQ4LCJ5IjoxMTg2LjEwOTM3NX0seyJ4Ijo0NDgsInkiOjEyMjMuMTA5Mzc1fV0=" marker-end="url(#my-svg_flowchart-v2-pointEnd)"/><path d="M671.236,791.858L685.697,809.397C700.157,826.936,729.079,862.015,743.539,898.472C758,934.93,758,972.766,758,991.684L758,1010.602" id="L_B1A_B1D_0" class="edge-thickness-normal edge-pattern-solid edge-thickness-normal edge-pattern-solid flowchart-link" style=";" data-edge="true" data-et="edge" data-id="L_B1A_B1D_0" data-points="W3sieCI6NjcxLjIzNjE1MTYwMzQ5ODYsInkiOjc5MS44NTc1OTgzOTY1MDE0fSx7IngiOjc1OCwieSI6ODk3LjA5Mzc1fSx7IngiOjc1OCwieSI6MTAxNC42MDE1NjI1fV0=" marker-end="url(#my-svg_flowchart-v2-pointEnd)"/><path d="M758,1068.602L758,1088.186C758,1107.771,758,1146.94,758,1176.025C758,1205.109,758,1224.109,758,1233.609L758,1243.109" id="L_B1D_B1D_FIX_0" class="edge-thickness-normal edge-pattern-solid edge-thickness-normal edge-pattern-solid flowchart-link" style=";" data-edge="true" data-et="edge" data-id="L_B1D_B1D_FIX_0" data-points="W3sieCI6NzU4LCJ5IjoxMDY4LjYwMTU2MjV9LHsieCI6NzU4LCJ5IjoxMTg2LjEwOTM3NX0seyJ4Ijo3NTgsInkiOjEyNDcuMTA5Mzc1fV0=" marker-end="url(#my-svg_flowchart-v2-pointEnd)"/><path d="M710.527,752.567L770.106,776.655C829.685,800.743,948.842,848.918,1008.421,889.924C1068,930.93,1068,964.766,1068,981.684L1068,998.602" id="L_B1A_B1E_0" class="edge-thickness-normal edge-pattern-solid edge-thickness-normal edge-pattern-solid flowchart-link" style=";" data-edge="true" data-et="edge" data-id="L_B1A_B1E_0" data-points="W3sieCI6NzEwLjUyNjc5OTM4NzQ0MjYsInkiOjc1Mi41NjY5NTA2MTI1NTc0fSx7IngiOjEwNjgsInkiOjg5Ny4wOTM3NX0seyJ4IjoxMDY4LCJ5IjoxMDAyLjYwMTU2MjV9XQ==" marker-end="url(#my-svg_flowchart-v2-pointEnd)"/><path d="M1068,1080.602L1068,1098.186C1068,1115.771,1068,1150.94,1068,1178.025C1068,1205.109,1068,1224.109,1068,1233.609L1068,1243.109" id="L_B1E_B1E_FIX_0" class="edge-thickness-normal edge-pattern-solid edge-thickness-normal edge-pattern-solid flowchart-link" style=";" data-edge="true" data-et="edge" data-id="L_B1E_B1E_FIX_0" data-points="W3sieCI6MTA2OCwieSI6MTA4MC42MDE1NjI1fSx7IngiOjEwNjgsInkiOjExODYuMTA5Mzc1fSx7IngiOjEwNjgsInkiOjEyNDcuMTA5Mzc1fV0=" marker-end="url(#my-svg_flowchart-v2-pointEnd)"/><path d="M1746.387,496.094L1746.387,502.26C1746.387,508.427,1746.387,520.76,1746.387,536.962C1746.387,553.164,1746.387,573.234,1746.387,583.27L1746.387,593.305" id="L_B2_B2A_0" class="edge-thickness-normal edge-pattern-solid edge-thickness-normal edge-pattern-solid flowchart-link" style=";" data-edge="true" data-et="edge" data-id="L_B2_B2A_0" data-points="W3sieCI6MTc0Ni4zODY3MTg3NSwieSI6NDk2LjA5Mzc1fSx7IngiOjE3NDYuMzg2NzE4NzUsInkiOjUzMy4wOTM3NX0seyJ4IjoxNzQ2LjM4NjcxODc1LCJ5Ijo1OTcuMzA0Njg3NX1d" marker-end="url(#my-svg_flowchart-v2-pointEnd)"/><path d="M1685.346,759.842L1657.831,782.717C1630.317,805.593,1575.287,851.343,1547.773,889.136C1520.258,926.93,1520.258,956.766,1520.258,971.684L1520.258,986.602" id="L_B2A_B2B_0" class="edge-thickness-normal edge-pattern-solid edge-thickness-normal edge-pattern-solid flowchart-link" style=";" data-edge="true" data-et="edge" data-id="L_B2A_B2B_0" data-points="W3sieCI6MTY4NS4zNDU5NzAxOTk2NDk2LCJ5Ijo3NTkuODQyMDYzOTQ5NjQ5Nn0seyJ4IjoxNTIwLjI1NzgxMjUsInkiOjg5Ny4wOTM3NX0seyJ4IjoxNTIwLjI1NzgxMjUsInkiOjk5MC42MDE1NjI1fV0=" marker-end="url(#my-svg_flowchart-v2-pointEnd)"/><path d="M1807.427,759.842L1834.942,782.717C1862.457,805.593,1917.486,851.343,1945.001,885.136C1972.516,918.93,1972.516,940.766,1972.516,951.684L1972.516,962.602" id="L_B2A_B2C_0" class="edge-thickness-normal edge-pattern-solid edge-thickness-normal edge-pattern-solid flowchart-link" style=";" data-edge="true" data-et="edge" data-id="L_B2A_B2C_0" data-points="W3sieCI6MTgwNy40Mjc0NjczMDAzNTA0LCJ5Ijo3NTkuODQyMDYzOTQ5NjQ5Nn0seyJ4IjoxOTcyLjUxNTYyNSwieSI6ODk3LjA5Mzc1fSx7IngiOjE5NzIuNTE1NjI1LCJ5Ijo5NjYuNjAxNTYyNX1d" marker-end="url(#my-svg_flowchart-v2-pointEnd)"/><path d="M2286.57,496.094L2286.57,502.26C2286.57,508.427,2286.57,520.76,2286.57,547.094C2286.57,573.427,2286.57,613.76,2286.57,633.927L2286.57,654.094" id="L_B3_B3A_0" class="edge-thickness-normal edge-pattern-solid edge-thickness-normal edge-pattern-solid flowchart-link" style=";" data-edge="true" data-et="edge" data-id="L_B3_B3A_0" data-points="W3sieCI6MjI4Ni41NzAzMTI1LCJ5Ijo0OTYuMDkzNzV9LHsieCI6MjI4Ni41NzAzMTI1LCJ5Ijo1MzMuMDkzNzV9LHsieCI6MjI4Ni41NzAzMTI1LCJ5Ijo2NTguMDkzNzV9XQ==" marker-end="url(#my-svg_flowchart-v2-pointEnd)"/><path d="M2286.57,760.094L2286.57,782.927C2286.57,805.76,2286.57,851.427,2286.57,891.178C2286.57,930.93,2286.57,964.766,2286.57,981.684L2286.57,998.602" id="L_B3A_B3B_0" class="edge-thickness-normal edge-pattern-solid edge-thickness-normal edge-pattern-solid flowchart-link" style=";" data-edge="true" data-et="edge" data-id="L_B3A_B3B_0" data-points="W3sieCI6MjI4Ni41NzAzMTI1LCJ5Ijo3NjAuMDkzNzV9LHsieCI6MjI4Ni41NzAzMTI1LCJ5Ijo4OTcuMDkzNzV9LHsieCI6MjI4Ni41NzAzMTI1LCJ5IjoxMDAyLjYwMTU2MjV9XQ==" marker-end="url(#my-svg_flowchart-v2-pointEnd)"/><path d="M2286.57,1080.602L2286.57,1098.186C2286.57,1115.771,2286.57,1150.94,2286.57,1182.025C2286.57,1213.109,2286.57,1240.109,2286.57,1253.609L2286.57,1267.109" id="L_B3B_B3C_0" class="edge-thickness-normal edge-pattern-solid edge-thickness-normal edge-pattern-solid flowchart-link" style=";" data-edge="true" data-et="edge" data-id="L_B3B_B3C_0" data-points="W3sieCI6MjI4Ni41NzAzMTI1LCJ5IjoxMDgwLjYwMTU2MjV9LHsieCI6MjI4Ni41NzAzMTI1LCJ5IjoxMTg2LjEwOTM3NX0seyJ4IjoyMjg2LjU3MDMxMjUsInkiOjEyNzEuMTA5Mzc1fV0=" marker-end="url(#my-svg_flowchart-v2-pointEnd)"/><path d="M2784.043,508.094L2784.043,512.26C2784.043,516.427,2784.043,524.76,2784.043,547.094C2784.043,569.427,2784.043,605.76,2784.043,623.927L2784.043,642.094" id="L_B4_B4A_0" class="edge-thickness-normal edge-pattern-solid edge-thickness-normal edge-pattern-solid flowchart-link" style=";" data-edge="true" data-et="edge" data-id="L_B4_B4A_0" data-points="W3sieCI6Mjc4NC4wNDI5Njg3NSwieSI6NTA4LjA5Mzc1fSx7IngiOjI3ODQuMDQyOTY4NzUsInkiOjUzMy4wOTM3NX0seyJ4IjoyNzg0LjA0Mjk2ODc1LCJ5Ijo2NDYuMDkzNzV9XQ==" marker-end="url(#my-svg_flowchart-v2-pointEnd)"/><path d="M2784.043,772.094L2784.043,792.927C2784.043,813.76,2784.043,855.427,2784.043,881.76C2784.043,908.094,2784.043,919.094,2784.043,924.594L2784.043,930.094" id="L_B4A_B4B_0" class="edge-thickness-normal edge-pattern-solid edge-thickness-normal edge-pattern-solid flowchart-link" style=";" data-edge="true" data-et="edge" data-id="L_B4A_B4B_0" data-points="W3sieCI6Mjc4NC4wNDI5Njg3NSwieSI6NzcyLjA5Mzc1fSx7IngiOjI3ODQuMDQyOTY4NzUsInkiOjg5Ny4wOTM3NX0seyJ4IjoyNzg0LjA0Mjk2ODc1LCJ5Ijo5MzQuMDkzNzV9XQ==" marker-end="url(#my-svg_flowchart-v2-pointEnd)"/><path d="M2725.26,1090.326L2706,1106.29C2686.741,1122.254,2648.222,1154.182,2628.963,1181.646C2609.703,1209.109,2609.703,1232.109,2609.703,1243.609L2609.703,1255.109" id="L_B4B_B4C_0" class="edge-thickness-normal edge-pattern-solid edge-thickness-normal edge-pattern-solid flowchart-link" style=";" data-edge="true" data-et="edge" data-id="L_B4B_B4C_0" data-points="W3sieCI6MjcyNS4yNTk3MzgzNzA5OCwieSI6MTA5MC4zMjYxNDQ2MjA5ODAxfSx7IngiOjI2MDkuNzAzMTI1LCJ5IjoxMTg2LjEwOTM3NX0seyJ4IjoyNjA5LjcwMzEyNSwieSI6MTI1OS4xMDkzNzV9XQ==" marker-end="url(#my-svg_flowchart-v2-pointEnd)"/><path d="M2842.826,1090.326L2862.086,1106.29C2881.345,1122.254,2919.864,1154.182,2939.123,1181.646C2958.383,1209.109,2958.383,1232.109,2958.383,1243.609L2958.383,1255.109" id="L_B4B_B4D_0" class="edge-thickness-normal edge-pattern-solid edge-thickness-normal edge-pattern-solid flowchart-link" style=";" data-edge="true" data-et="edge" data-id="L_B4B_B4D_0" data-points="W3sieCI6Mjg0Mi44MjYxOTkxMjkwMiwieSI6MTA5MC4zMjYxNDQ2MjA5ODAxfSx7IngiOjI5NTguMzgyODEyNSwieSI6MTE4Ni4xMDkzNzV9LHsieCI6Mjk1OC4zODI4MTI1LCJ5IjoxMjU5LjEwOTM3NX1d" marker-end="url(#my-svg_flowchart-v2-pointEnd)"/><path d="M3270.391,484.094L3270.391,492.26C3270.391,500.427,3270.391,516.76,3270.391,543.094C3270.391,569.427,3270.391,605.76,3270.391,623.927L3270.391,642.094" id="L_B5_B5A_0" class="edge-thickness-normal edge-pattern-solid edge-thickness-normal edge-pattern-solid flowchart-link" style=";" data-edge="true" data-et="edge" data-id="L_B5_B5A_0" data-points="W3sieCI6MzI3MC4zOTA2MjUsInkiOjQ4NC4wOTM3NX0seyJ4IjozMjcwLjM5MDYyNSwieSI6NTMzLjA5Mzc1fSx7IngiOjMyNzAuMzkwNjI1LCJ5Ijo2NDYuMDkzNzV9XQ==" marker-end="url(#my-svg_flowchart-v2-pointEnd)"/><path d="M3270.391,772.094L3270.391,792.927C3270.391,813.76,3270.391,855.427,3270.391,891.178C3270.391,926.93,3270.391,956.766,3270.391,971.684L3270.391,986.602" id="L_B5A_B5B_0" class="edge-thickness-normal edge-pattern-solid edge-thickness-normal edge-pattern-solid flowchart-link" style=";" data-edge="true" data-et="edge" data-id="L_B5A_B5B_0" data-points="W3sieCI6MzI3MC4zOTA2MjUsInkiOjc3Mi4wOTM3NX0seyJ4IjozMjcwLjM5MDYyNSwieSI6ODk3LjA5Mzc1fSx7IngiOjMyNzAuMzkwNjI1LCJ5Ijo5OTAuNjAxNTYyNX1d" marker-end="url(#my-svg_flowchart-v2-pointEnd)"/><path d="M3270.391,1092.602L3270.391,1108.186C3270.391,1123.771,3270.391,1154.94,3270.391,1186.025C3270.391,1217.109,3270.391,1248.109,3270.391,1263.609L3270.391,1279.109" id="L_B5B_B5C_0" class="edge-thickness-normal edge-pattern-solid edge-thickness-normal edge-pattern-solid flowchart-link" style=";" data-edge="true" data-et="edge" data-id="L_B5B_B5C_0" data-points="W3sieCI6MzI3MC4zOTA2MjUsInkiOjEwOTIuNjAxNTYyNX0seyJ4IjozMjcwLjM5MDYyNSwieSI6MTE4Ni4xMDkzNzV9LHsieCI6MzI3MC4zOTA2MjUsInkiOjEyODMuMTA5Mzc1fV0=" marker-end="url(#my-svg_flowchart-v2-pointEnd)"/></g><g class="edgeLabels"><g class="edgeLabel"><g class="label" data-id="L_ALERT_A1_0" transform="translate(0, 0)"><foreignObject width="0" height="0"><div xmlns="http://www.w3.org/1999/xhtml" class="labelBkg" style="display: table-cell; white-space: nowrap; line-height: 1.5; max-width: 200px; text-align: center;"><span class="edgeLabel"></span></div></foreignObject></g></g><g class="edgeLabel" transform="translate(603, 345.09375)"><g class="label" data-id="L_A1_B1_0" transform="translate(-74.0546875, -12)"><foreignObject width="148.109375" height="24"><div xmlns="http://www.w3.org/1999/xhtml" class="labelBkg" style="display: table-cell; white-space: nowrap; line-height: 1.5; max-width: 200px; text-align: center;"><span class="edgeLabel"><p>Container crash loop</p></span></div></foreignObject></g></g><g class="edgeLabel" transform="translate(1746.38671875, 345.09375)"><g class="label" data-id="L_A1_B2_0" transform="translate(-52.0625, -12)"><foreignObject width="104.125" height="24"><div xmlns="http://www.w3.org/1999/xhtml" class="labelBkg" style="display: table-cell; white-space: nowrap; line-height: 1.5; max-width: 200px; text-align: center;"><span class="edgeLabel"><p>Context resets</p></span></div></foreignObject></g></g><g class="edgeLabel" transform="translate(2286.5703125, 345.09375)"><g class="label" data-id="L_A1_B3_0" transform="translate(-51.6484375, -12)"><foreignObject width="103.296875" height="24"><div xmlns="http://www.w3.org/1999/xhtml" class="labelBkg" style="display: table-cell; white-space: nowrap; line-height: 1.5; max-width: 200px; text-align: center;"><span class="edgeLabel"><p>Gateway error</p></span></div></foreignObject></g></g><g class="edgeLabel" transform="translate(2784.04296875, 345.09375)"><g class="label" data-id="L_A1_B4_0" transform="translate(-48.671875, -12)"><foreignObject width="97.34375" height="24"><div xmlns="http://www.w3.org/1999/xhtml" class="labelBkg" style="display: table-cell; white-space: nowrap; line-height: 1.5; max-width: 200px; text-align: center;"><span class="edgeLabel"><p>Security alert</p></span></div></foreignObject></g></g><g class="edgeLabel" transform="translate(3270.390625, 345.09375)"><g class="label" data-id="L_A1_B5_0" transform="translate(-78.2109375, -12)"><foreignObject width="156.421875" height="24"><div xmlns="http://www.w3.org/1999/xhtml" class="labelBkg" style="display: table-cell; white-space: nowrap; line-height: 1.5; max-width: 200px; text-align: center;"><span class="edgeLabel"><p>No Telegram response</p></span></div></foreignObject></g></g><g class="edgeLabel"><g class="label" data-id="L_B1_B1A_0" transform="translate(0, 0)"><foreignObject width="0" height="0"><div xmlns="http://www.w3.org/1999/xhtml" class="labelBkg" style="display: table-cell; white-space: nowrap; line-height: 1.5; max-width: 200px; text-align: center;"><span class="edgeLabel"></span></div></foreignObject></g></g><g class="edgeLabel" transform="translate(138, 897.09375)"><g class="label" data-id="L_B1A_B1B_0" transform="translate(-48.984375, -12)"><foreignObject width="97.96875" height="24"><div xmlns="http://www.w3.org/1999/xhtml" class="labelBkg" style="display: table-cell; white-space: nowrap; line-height: 1.5; max-width: 200px; text-align: center;"><span class="edgeLabel"><p>Config invalid</p></span></div></foreignObject></g></g><g class="edgeLabel"><g class="label" data-id="L_B1B_B1B_FIX_0" transform="translate(0, 0)"><foreignObject width="0" height="0"><div xmlns="http://www.w3.org/1999/xhtml" class="labelBkg" style="display: table-cell; white-space: nowrap; line-height: 1.5; max-width: 200px; text-align: center;"><span class="edgeLabel"></span></div></foreignObject></g></g><g class="edgeLabel" transform="translate(448, 897.09375)"><g class="label" data-id="L_B1A_B1C_0" transform="translate(-54.53125, -12)"><foreignObject width="109.0625" height="24"><div xmlns="http://www.w3.org/1999/xhtml" class="labelBkg" style="display: table-cell; white-space: nowrap; line-height: 1.5; max-width: 200px; text-align: center;"><span class="edgeLabel"><p>op-proxy failed</p></span></div></foreignObject></g></g><g class="edgeLabel"><g class="label" data-id="L_B1C_B1C_FIX_0" transform="translate(0, 0)"><foreignObject width="0" height="0"><div xmlns="http://www.w3.org/1999/xhtml" class="labelBkg" style="display: table-cell; white-space: nowrap; line-height: 1.5; max-width: 200px; text-align: center;"><span class="edgeLabel"></span></div></foreignObject></g></g><g class="edgeLabel" transform="translate(758, 897.09375)"><g class="label" data-id="L_B1A_B1D_0" transform="translate(-36.6328125, -12)"><foreignObject width="73.265625" height="24"><div xmlns="http://www.w3.org/1999/xhtml" class="labelBkg" style="display: table-cell; white-space: nowrap; line-height: 1.5; max-width: 200px; text-align: center;"><span class="edgeLabel"><p>OOMKilled</p></span></div></foreignObject></g></g><g class="edgeLabel"><g class="label" data-id="L_B1D_B1D_FIX_0" transform="translate(0, 0)"><foreignObject width="0" height="0"><div xmlns="http://www.w3.org/1999/xhtml" class="labelBkg" style="display: table-cell; white-space: nowrap; line-height: 1.5; max-width: 200px; text-align: center;"><span class="edgeLabel"></span></div></foreignObject></g></g><g class="edgeLabel" transform="translate(1068, 897.09375)"><g class="label" data-id="L_B1A_B1E_0" transform="translate(-47.7265625, -12)"><foreignObject width="95.453125" height="24"><div xmlns="http://www.w3.org/1999/xhtml" class="labelBkg" style="display: table-cell; white-space: nowrap; line-height: 1.5; max-width: 200px; text-align: center;"><span class="edgeLabel"><p>Node.js error</p></span></div></foreignObject></g></g><g class="edgeLabel"><g class="label" data-id="L_B1E_B1E_FIX_0" transform="translate(0, 0)"><foreignObject width="0" height="0"><div xmlns="http://www.w3.org/1999/xhtml" class="labelBkg" style="display: table-cell; white-space: nowrap; line-height: 1.5; max-width: 200px; text-align: center;"><span class="edgeLabel"></span></div></foreignObject></g></g><g class="edgeLabel"><g class="label" data-id="L_B2_B2A_0" transform="translate(0, 0)"><foreignObject width="0" height="0"><div xmlns="http://www.w3.org/1999/xhtml" class="labelBkg" style="display: table-cell; white-space: nowrap; line-height: 1.5; max-width: 200px; text-align: center;"><span class="edgeLabel"></span></div></foreignObject></g></g><g class="edgeLabel" transform="translate(1520.2578125, 897.09375)"><g class="label" data-id="L_B2A_B2B_0" transform="translate(-44.484375, -12)"><foreignObject width="88.96875" height="24"><div xmlns="http://www.w3.org/1999/xhtml" class="labelBkg" style="display: table-cell; white-space: nowrap; line-height: 1.5; max-width: 200px; text-align: center;"><span class="edgeLabel"><p>No / missing</p></span></div></foreignObject></g></g><g class="edgeLabel" transform="translate(1972.515625, 897.09375)"><g class="label" data-id="L_B2A_B2C_0" transform="translate(-36.390625, -12)"><foreignObject width="72.78125" height="24"><div xmlns="http://www.w3.org/1999/xhtml" class="labelBkg" style="display: table-cell; white-space: nowrap; line-height: 1.5; max-width: 200px; text-align: center;"><span class="edgeLabel"><p>Yes (4000)</p></span></div></foreignObject></g></g><g class="edgeLabel"><g class="label" data-id="L_B3_B3A_0" transform="translate(0, 0)"><foreignObject width="0" height="0"><div xmlns="http://www.w3.org/1999/xhtml" class="labelBkg" style="display: table-cell; white-space: nowrap; line-height: 1.5; max-width: 200px; text-align: center;"><span class="edgeLabel"></span></div></foreignObject></g></g><g class="edgeLabel"><g class="label" data-id="L_B3A_B3B_0" transform="translate(0, 0)"><foreignObject width="0" height="0"><div xmlns="http://www.w3.org/1999/xhtml" class="labelBkg" style="display: table-cell; white-space: nowrap; line-height: 1.5; max-width: 200px; text-align: center;"><span class="edgeLabel"></span></div></foreignObject></g></g><g class="edgeLabel"><g class="label" data-id="L_B3B_B3C_0" transform="translate(0, 0)"><foreignObject width="0" height="0"><div xmlns="http://www.w3.org/1999/xhtml" class="labelBkg" style="display: table-cell; white-space: nowrap; line-height: 1.5; max-width: 200px; text-align: center;"><span class="edgeLabel"></span></div></foreignObject></g></g><g class="edgeLabel"><g class="label" data-id="L_B4_B4A_0" transform="translate(0, 0)"><foreignObject width="0" height="0"><div xmlns="http://www.w3.org/1999/xhtml" class="labelBkg" style="display: table-cell; white-space: nowrap; line-height: 1.5; max-width: 200px; text-align: center;"><span class="edgeLabel"></span></div></foreignObject></g></g><g class="edgeLabel"><g class="label" data-id="L_B4A_B4B_0" transform="translate(0, 0)"><foreignObject width="0" height="0"><div xmlns="http://www.w3.org/1999/xhtml" class="labelBkg" style="display: table-cell; white-space: nowrap; line-height: 1.5; max-width: 200px; text-align: center;"><span class="edgeLabel"></span></div></foreignObject></g></g><g class="edgeLabel" transform="translate(2609.703125, 1186.109375)"><g class="label" data-id="L_B4B_B4C_0" transform="translate(-72.296875, -12)"><foreignObject width="144.59375" height="24"><div xmlns="http://www.w3.org/1999/xhtml" class="labelBkg" style="display: table-cell; white-space: nowrap; line-height: 1.5; max-width: 200px; text-align: center;"><span class="edgeLabel"><p>Yes, add to allowlist</p></span></div></foreignObject></g></g><g class="edgeLabel" transform="translate(2958.3828125, 1186.109375)"><g class="label" data-id="L_B4B_B4D_0" transform="translate(-72.578125, -12)"><foreignObject width="145.15625" height="24"><div xmlns="http://www.w3.org/1999/xhtml" class="labelBkg" style="display: table-cell; white-space: nowrap; line-height: 1.5; max-width: 200px; text-align: center;"><span class="edgeLabel"><p>No, potential attack</p></span></div></foreignObject></g></g><g class="edgeLabel"><g class="label" data-id="L_B5_B5A_0" transform="translate(0, 0)"><foreignObject width="0" height="0"><div xmlns="http://www.w3.org/1999/xhtml" class="labelBkg" style="display: table-cell; white-space: nowrap; line-height: 1.5; max-width: 200px; text-align: center;"><span class="edgeLabel"></span></div></foreignObject></g></g><g class="edgeLabel"><g class="label" data-id="L_B5A_B5B_0" transform="translate(0, 0)"><foreignObject width="0" height="0"><div xmlns="http://www.w3.org/1999/xhtml" class="labelBkg" style="display: table-cell; white-space: nowrap; line-height: 1.5; max-width: 200px; text-align: center;"><span class="edgeLabel"></span></div></foreignObject></g></g><g class="edgeLabel"><g class="label" data-id="L_B5B_B5C_0" transform="translate(0, 0)"><foreignObject width="0" height="0"><div xmlns="http://www.w3.org/1999/xhtml" class="labelBkg" style="display: table-cell; white-space: nowrap; line-height: 1.5; max-width: 200px; text-align: center;"><span class="edgeLabel"></span></div></foreignObject></g></g></g><g class="nodes"><g class="node default" id="flowchart-ALERT-0" transform="translate(2286.5703125, 27.5)"><g class="basic label-container outer-path"><path d="M-84.1875 -19.5 C-40.20500896381495 -19.5, 3.7774820723701055 -19.5, 84.1875 -19.5 C84.1875 -19.5, 84.1875 -19.5, 84.1875 -19.5 C84.504807350898 -19.48982457085799, 84.82211470179601 -19.479649141715985, 85.4368692896239 -19.45993515863156 C85.77657912883548 -19.427163759003676, 86.11628896804704 -19.39439235937579, 86.68110465284786 -19.3399052695533 C87.10889449959373 -19.270743524691238, 87.5366843463396 -19.201581779829173, 87.91509325967675 -19.140403561325776 C88.22716653730637 -19.069174872175267, 88.539239814936 -18.99794618302476, 89.13376438623538 -18.862249829261074 C89.4126999974216 -18.77946320402391, 89.6916356086078 -18.696676578786747, 90.3321102514606 -18.50658706670804 C90.79009178093919 -18.33804563032507, 91.24807331041778 -18.1695041939421, 91.5052065951478 -18.074876768247425 C91.93548017735559 -17.884407417016362, 92.36575375956336 -17.6939380657853, 92.64823291279238 -17.568892924097174 C93.05666901158818 -17.35581207297121, 93.46510511038399 -17.142731221845246, 93.75649226407678 -16.990714730406097 C94.08529246737724 -16.79139411492089, 94.41409267067769 -16.592073499435685, 94.8254305736057 -16.342718045390892 C95.12042691730919 -16.13694136620924, 95.41542326101268 -15.931164687027588, 95.85065534457871 -15.627565626425154 C96.18939928532409 -15.357426348035554, 96.52814322606947 -15.087287069645953, 96.82795370850187 -14.848196188198123 C97.02106521216086 -14.672817430025415, 97.21417671581987 -14.497438671852708, 97.75330973676799 -14.007812326905688 C97.97877650176815 -13.774999380877343, 98.20424326676833 -13.542186434848999, 98.62292094296865 -13.10986736009568 C98.93266642729506 -12.746022689188521, 99.24241191162147 -12.382178018281364, 99.43321390812658 -12.158051136245305 C99.64189993790775 -11.878430868026955, 99.85058596768891 -11.598810599808605, 100.18085896464063 -11.156274872382312 C100.3711575493633 -10.863925143923302, 100.56145613408596 -10.571575415464293, 100.86278387860425 -10.108655082055241 C101.04305824177487 -9.788559695487043, 101.2233326049455 -9.468464308918847, 101.4761864742735 -9.019496659696287 C101.6250415666094 -8.710395875472049, 101.77389665894529 -8.40129509124781, 102.01854614880834 -7.893275190886684 C102.12824505950898 -7.622316760571953, 102.23794397020961 -7.351358330257221, 102.48763422997033 -6.734618561215508 C102.59525085652359 -6.410494428417991, 102.70286748307686 -6.086370295620474, 102.88152313421489 -5.548287939305138 C102.99854573502823 -5.102030044487817, 103.11556833584159 -4.655772149670497, 103.19859428754556 -4.339158212148133 C103.26663083241816 -3.989804933756199, 103.33466737729076 -3.6404516553642643, 103.43754477658177 -3.1121979531509023 C103.48415361850064 -2.7507089791850188, 103.53076246041951 -2.3892200052191352, 103.59739270250937 -1.872449005199798 C103.61747747686526 -1.5596124324686733, 103.63756225122115 -1.2467758597375487, 103.67748121591342 -0.6250057626472757 C103.67748121591342 -0.33567195687395845, 103.67748121591342 -0.04633815110064121, 103.67748121591342 0.625005762647271 C103.65026769554525 1.0488783087397429, 103.62305417517709 1.4727508548322148, 103.59739270250937 1.8724490051997846 C103.54337746513296 2.2913805197760584, 103.48936222775656 2.7103120343523317, 103.43754477658177 3.1121979531508885 C103.34539423108552 3.5853715282494516, 103.25324368558927 4.058545103348015, 103.19859428754556 4.339158212148129 C103.0818795690127 4.784242018392927, 102.96516485047984 5.2293258246377246, 102.88152313421489 5.548287939305125 C102.76236132750982 5.90718431524519, 102.64319952080477 6.266080691185255, 102.48763422997033 6.734618561215495 C102.36523316075923 7.036951568630592, 102.24283209154812 7.339284576045689, 102.01854614880834 7.893275190886679 C101.88515057836096 8.170273947128617, 101.7517550079136 8.447272703370555, 101.4761864742735 9.019496659696284 C101.27005935263482 9.38549623680018, 101.06393223099614 9.751495813904077, 100.86278387860425 10.108655082055236 C100.61446075910989 10.490146077692806, 100.36613763961554 10.871637073330376, 100.18085896464065 11.156274872382301 C99.99810757295421 11.40114508824784, 99.81535618126777 11.64601530411338, 99.43321390812659 12.158051136245302 C99.23076376491763 12.395860594198036, 99.02831362170866 12.63367005215077, 98.62292094296866 13.10986736009567 C98.42414933361236 13.315115366208673, 98.22537772425608 13.520363372321675, 97.75330973676799 14.007812326905684 C97.44714837350332 14.28585997643688, 97.14098701023866 14.563907625968074, 96.8279537085019 14.848196188198111 C96.47567600581245 15.129128281589567, 96.12339830312301 15.410060374981024, 95.85065534457871 15.627565626425152 C95.4810020987174 15.885419728706902, 95.11134885285608 16.14327383098865, 94.8254305736057 16.34271804539089 C94.41960650207511 16.5887309824397, 94.01378243054451 16.83474391948851, 93.75649226407678 16.990714730406093 C93.51700249564843 17.115656389194648, 93.27751272722007 17.2405980479832, 92.64823291279238 17.56889292409717 C92.41875502678027 17.6704759770151, 92.18927714076817 17.772059029933036, 91.5052065951478 18.07487676824742 C91.05139985660647 18.241881842974138, 90.59759311806512 18.40888691770086, 90.33211025146062 18.506587066708033 C90.09068190196372 18.578241733555448, 89.8492535524668 18.649896400402863, 89.13376438623541 18.86224982926107 C88.81247989764486 18.93558091720464, 88.4911954090543 19.00891200514821, 87.91509325967677 19.140403561325773 C87.49372751212337 19.20852670765003, 87.07236176456999 19.276649853974284, 86.68110465284788 19.3399052695533 C86.30019025855138 19.3766516230545, 85.91927586425489 19.413397976555697, 85.4368692896239 19.45993515863156 C84.937424543448 19.475951379531196, 84.43797979727209 19.491967600430833, 84.1875 19.5 C84.1875 19.5, 84.1875 19.5, 84.1875 19.5 C44.711802779498775 19.5, 5.236105558997551 19.5, -84.1875 19.5 C-84.65455468407471 19.485022465348518, -85.12160936814944 19.470044930697036, -85.4368692896239 19.45993515863156 C-85.86565348463627 19.418570863027156, -86.29443767964864 19.377206567422757, -86.68110465284786 19.3399052695533 C-87.11470869676342 19.269803530382614, -87.54831274067898 19.19970179121193, -87.91509325967675 19.140403561325773 C-88.3226800937623 19.047374526198407, -88.73026692784785 18.954345491071038, -89.13376438623538 18.862249829261074 C-89.47697206887898 18.760387590586344, -89.82017975152259 18.658525351911614, -90.33211025146059 18.506587066708043 C-90.79875260516803 18.33485836694907, -91.26539495887549 18.1631296671901, -91.5052065951478 18.074876768247425 C-91.90852917508155 17.896337826249997, -92.31185175501531 17.717798884252574, -92.64823291279238 17.568892924097174 C-93.03403019159207 17.367622730862333, -93.41982747039174 17.166352537627493, -93.75649226407678 16.990714730406097 C-94.04209348756393 16.817581590349096, -94.3276947110511 16.644448450292096, -94.82543057360569 16.3427180453909 C-95.07802955766981 16.166515928941553, -95.33062854173392 15.99031381249221, -95.85065534457871 15.627565626425156 C-96.16771334304944 15.374720309912425, -96.48477134152019 15.121874993399693, -96.82795370850187 14.848196188198125 C-97.14508949446876 14.560181858336074, -97.46222528043566 14.272167528474021, -97.75330973676797 14.007812326905697 C-98.04863079099135 13.70286909211058, -98.34395184521475 13.397925857315462, -98.62292094296865 13.109867360095677 C-98.87461834613643 12.814209268346831, -99.12631574930423 12.518551176597983, -99.43321390812658 12.158051136245307 C-99.6438376034757 11.875834572690868, -99.85446129882482 11.593618009136431, -100.18085896464063 11.156274872382316 C-100.40651055408539 10.809613435059193, -100.63216214353012 10.462951997736068, -100.86278387860425 10.108655082055249 C-101.02445503203073 9.821591578167048, -101.1861261854572 9.534528074278846, -101.4761864742735 9.019496659696289 C-101.64637572485262 8.666095039402155, -101.81656497543172 8.312693419108019, -102.01854614880834 7.893275190886686 C-102.165499711814 7.530297049108876, -102.31245327481963 7.167318907331066, -102.48763422997033 6.73461856121551 C-102.6018703572957 6.390557546766654, -102.71610648462105 6.046496532317799, -102.88152313421489 5.5482879393051325 C-102.96747631918461 5.220511192669561, -103.05342950415434 4.89273444603399, -103.19859428754556 4.339158212148136 C-103.2778336931114 3.9322806118218523, -103.35707309867723 3.5254030114955683, -103.43754477658177 3.112197953150904 C-103.49125480829012 2.6956335534664255, -103.54496483999846 2.2790691537819474, -103.59739270250937 1.872449005199809 C-103.61379722459239 1.6169353322649567, -103.6302017466754 1.3614216593301045, -103.67748121591342 0.6250057626472781 C-103.67748121591342 0.2730852934375911, -103.67748121591342 -0.07883517577209598, -103.67748121591342 -0.6250057626472687 C-103.65077765379993 -1.0409352972922266, -103.62407409168644 -1.4568648319371844, -103.59739270250937 -1.8724490051997822 C-103.53349081391902 -2.36805943425132, -103.46958892532867 -2.8636698633028574, -103.43754477658177 -3.112197953150895 C-103.35661356730826 -3.527762607953271, -103.27568235803474 -3.9433272627556466, -103.19859428754556 -4.339158212148126 C-103.11452837013375 -4.659737989638446, -103.03046245272193 -4.980317767128766, -102.88152313421489 -5.548287939305123 C-102.78058752531331 -5.852289911411373, -102.67965191641171 -6.156291883517623, -102.48763422997033 -6.734618561215485 C-102.37500358506306 -7.012818431701834, -102.26237294015579 -7.291018302188182, -102.01854614880834 -7.893275190886676 C-101.89812762756029 -8.143326826801877, -101.77770910631222 -8.393378462717077, -101.4761864742735 -9.019496659696282 C-101.31011806930032 -9.314367928975672, -101.14404966432713 -9.609239198255064, -100.86278387860425 -10.108655082055243 C-100.68513969423923 -10.381564253382628, -100.5074955098742 -10.654473424710012, -100.18085896464063 -11.156274872382308 C-99.92510483252556 -11.498962109735748, -99.6693507004105 -11.841649347089188, -99.43321390812659 -12.158051136245302 C-99.13300453840553 -12.510694144316716, -98.83279516868447 -12.86333715238813, -98.62292094296866 -13.10986736009567 C-98.4153321294336 -13.324219853429174, -98.20774331589854 -13.53857234676268, -97.75330973676799 -14.007812326905677 C-97.3883749119823 -14.339236479129701, -97.0234400871966 -14.670660631353723, -96.8279537085019 -14.848196188198107 C-96.61497669180089 -15.018039691460723, -96.40199967509987 -15.18788319472334, -95.85065534457871 -15.627565626425149 C-95.618717138916 -15.789355678252356, -95.3867789332533 -15.951145730079563, -94.82543057360571 -16.342718045390885 C-94.59671357161326 -16.481367636089004, -94.36799656962081 -16.620017226787123, -93.75649226407678 -16.99071473040609 C-93.36165835454813 -17.196699328104007, -92.96682444501947 -17.402683925801924, -92.6482329127924 -17.56889292409717 C-92.28023265325476 -17.731795722654642, -91.91223239371712 -17.894698521212113, -91.50520659514781 -18.07487676824742 C-91.09123422240175 -18.227222428136635, -90.6772618496557 -18.37956808802585, -90.33211025146062 -18.506587066708033 C-90.00637415133392 -18.603263831401957, -89.68063805120723 -18.69994059609588, -89.13376438623541 -18.862249829261067 C-88.66977718867986 -18.968151879303697, -88.2057899911243 -19.074053929346327, -87.91509325967677 -19.140403561325773 C-87.46549665385284 -19.21309085388163, -87.01590004802893 -19.285778146437494, -86.68110465284788 -19.3399052695533 C-86.39417183655056 -19.3675853332543, -86.10723902025325 -19.395265396955303, -85.4368692896239 -19.45993515863156 C-85.10076781701343 -19.470713278676346, -84.76466634440297 -19.481491398721136, -84.1875 -19.5 C-84.1875 -19.5, -84.1875 -19.5, -84.1875 -19.5" stroke="none" stroke-width="0" fill="#ECECFF" style=""/><path d="M-84.1875 -19.5 C-49.817532835121646 -19.5, -15.447565670243293 -19.5, 84.1875 -19.5 M-84.1875 -19.5 C-36.017592730674544 -19.5, 12.152314538650913 -19.5, 84.1875 -19.5 M84.1875 -19.5 C84.1875 -19.5, 84.1875 -19.5, 84.1875 -19.5 M84.1875 -19.5 C84.1875 -19.5, 84.1875 -19.5, 84.1875 -19.5 M84.1875 -19.5 C84.47686688549815 -19.490720567200547, 84.76623377099632 -19.4814411344011, 85.4368692896239 -19.45993515863156 M84.1875 -19.5 C84.46380520127856 -19.491139429990444, 84.74011040255712 -19.48227885998089, 85.4368692896239 -19.45993515863156 M85.4368692896239 -19.45993515863156 C85.87370549052422 -19.4177940957031, 86.31054169142453 -19.375653032774643, 86.68110465284786 -19.3399052695533 M85.4368692896239 -19.45993515863156 C85.80169628925599 -19.42474073674571, 86.16652328888809 -19.389546314859864, 86.68110465284786 -19.3399052695533 M86.68110465284786 -19.3399052695533 C86.96860968409068 -19.293423685736776, 87.2561147153335 -19.246942101920254, 87.91509325967675 -19.140403561325776 M86.68110465284786 -19.3399052695533 C87.14916666890653 -19.264232632672083, 87.61722868496518 -19.188559995790865, 87.91509325967675 -19.140403561325776 M87.91509325967675 -19.140403561325776 C88.36004119444935 -19.038847098770557, 88.80498912922194 -18.937290636215337, 89.13376438623538 -18.862249829261074 M87.91509325967675 -19.140403561325776 C88.39427203530974 -19.031034132721285, 88.87345081094273 -18.921664704116793, 89.13376438623538 -18.862249829261074 M89.13376438623538 -18.862249829261074 C89.51794652664405 -18.74822658660099, 89.90212866705272 -18.634203343940904, 90.3321102514606 -18.50658706670804 M89.13376438623538 -18.862249829261074 C89.45815200366403 -18.765973287153606, 89.78253962109265 -18.66969674504614, 90.3321102514606 -18.50658706670804 M90.3321102514606 -18.50658706670804 C90.65712864155475 -18.38697729471633, 90.98214703164889 -18.267367522724623, 91.5052065951478 -18.074876768247425 M90.3321102514606 -18.50658706670804 C90.70080736051555 -18.3709031223771, 91.0695044695705 -18.235219178046165, 91.5052065951478 -18.074876768247425 M91.5052065951478 -18.074876768247425 C91.91200214840188 -17.894800443983183, 92.31879770165595 -17.714724119718944, 92.64823291279238 -17.568892924097174 M91.5052065951478 -18.074876768247425 C91.86668238027978 -17.914862160967676, 92.22815816541178 -17.754847553687927, 92.64823291279238 -17.568892924097174 M92.64823291279238 -17.568892924097174 C92.98394222789194 -17.39375358944181, 93.31965154299151 -17.218614254786445, 93.75649226407678 -16.990714730406097 M92.64823291279238 -17.568892924097174 C92.88240192293999 -17.446727101495576, 93.1165709330876 -17.324561278893974, 93.75649226407678 -16.990714730406097 M93.75649226407678 -16.990714730406097 C94.0717848619421 -16.79958250471517, 94.38707745980743 -16.60845027902424, 94.8254305736057 -16.342718045390892 M93.75649226407678 -16.990714730406097 C94.08283156258328 -16.792885929868874, 94.40917086108976 -16.59505712933165, 94.8254305736057 -16.342718045390892 M94.8254305736057 -16.342718045390892 C95.15547032114816 -16.11249660469568, 95.48551006869062 -15.882275164000465, 95.85065534457871 -15.627565626425154 M94.8254305736057 -16.342718045390892 C95.16264224704616 -16.1074937796569, 95.49985392048661 -15.872269513922905, 95.85065534457871 -15.627565626425154 M95.85065534457871 -15.627565626425154 C96.22128115719589 -15.332001403630038, 96.59190696981307 -15.03643718083492, 96.82795370850187 -14.848196188198123 M95.85065534457871 -15.627565626425154 C96.21144017634906 -15.339849323975887, 96.5722250081194 -15.052133021526622, 96.82795370850187 -14.848196188198123 M96.82795370850187 -14.848196188198123 C97.03655204755684 -14.658752695878006, 97.24515038661181 -14.46930920355789, 97.75330973676799 -14.007812326905688 M96.82795370850187 -14.848196188198123 C97.13418988330412 -14.570080596807903, 97.44042605810635 -14.291965005417683, 97.75330973676799 -14.007812326905688 M97.75330973676799 -14.007812326905688 C97.98407626586263 -13.769526939331083, 98.21484279495726 -13.53124155175648, 98.62292094296865 -13.10986736009568 M97.75330973676799 -14.007812326905688 C98.09492807619793 -13.655063344056998, 98.43654641562786 -13.302314361208309, 98.62292094296865 -13.10986736009568 M98.62292094296865 -13.10986736009568 C98.86172307064957 -12.829356792695666, 99.10052519833049 -12.548846225295653, 99.43321390812658 -12.158051136245305 M98.62292094296865 -13.10986736009568 C98.92163845559746 -12.758976772253892, 99.22035596822627 -12.408086184412104, 99.43321390812658 -12.158051136245305 M99.43321390812658 -12.158051136245305 C99.60005823240681 -11.934494941540429, 99.76690255668704 -11.710938746835554, 100.18085896464063 -11.156274872382312 M99.43321390812658 -12.158051136245305 C99.6327934180458 -11.89063277502095, 99.83237292796501 -11.623214413796596, 100.18085896464063 -11.156274872382312 M100.18085896464063 -11.156274872382312 C100.36619680271212 -10.871546182926508, 100.5515346407836 -10.586817493470702, 100.86278387860425 -10.108655082055241 M100.18085896464063 -11.156274872382312 C100.35348575503465 -10.891073765553314, 100.52611254542867 -10.625872658724317, 100.86278387860425 -10.108655082055241 M100.86278387860425 -10.108655082055241 C101.00023904929786 -9.8645895076434, 101.13769421999146 -9.62052393323156, 101.4761864742735 -9.019496659696287 M100.86278387860425 -10.108655082055241 C101.06011255063368 -9.758278043172215, 101.2574412226631 -9.407901004289187, 101.4761864742735 -9.019496659696287 M101.4761864742735 -9.019496659696287 C101.66090012629468 -8.635934809035309, 101.84561377831585 -8.252372958374329, 102.01854614880834 -7.893275190886684 M101.4761864742735 -9.019496659696287 C101.63313658283559 -8.693586401072753, 101.79008669139769 -8.36767614244922, 102.01854614880834 -7.893275190886684 M102.01854614880834 -7.893275190886684 C102.17157832892732 -7.515282747316877, 102.32461050904631 -7.137290303747069, 102.48763422997033 -6.734618561215508 M102.01854614880834 -7.893275190886684 C102.18927214259179 -7.471578685479033, 102.35999813637524 -7.04988218007138, 102.48763422997033 -6.734618561215508 M102.48763422997033 -6.734618561215508 C102.586461384435 -6.436966917936651, 102.68528853889966 -6.139315274657794, 102.88152313421489 -5.548287939305138 M102.48763422997033 -6.734618561215508 C102.60090968032702 -6.3934509527332, 102.71418513068372 -6.052283344250892, 102.88152313421489 -5.548287939305138 M102.88152313421489 -5.548287939305138 C103.0027615636878 -5.08595326265722, 103.1239999931607 -4.623618586009304, 103.19859428754556 -4.339158212148133 M102.88152313421489 -5.548287939305138 C102.98780294621035 -5.142996954204536, 103.09408275820581 -4.737705969103933, 103.19859428754556 -4.339158212148133 M103.19859428754556 -4.339158212148133 C103.29037295802465 -3.8678941366669113, 103.38215162850372 -3.3966300611856894, 103.43754477658177 -3.1121979531509023 M103.19859428754556 -4.339158212148133 C103.29009569255409 -3.8693178362581495, 103.3815970975626 -3.399477460368166, 103.43754477658177 -3.1121979531509023 M103.43754477658177 -3.1121979531509023 C103.4909595758985 -2.697923317595559, 103.54437437521523 -2.2836486820402153, 103.59739270250937 -1.872449005199798 M103.43754477658177 -3.1121979531509023 C103.47814306748349 -2.797325625956593, 103.51874135838518 -2.4824532987622834, 103.59739270250937 -1.872449005199798 M103.59739270250937 -1.872449005199798 C103.62671946058988 -1.4156610759626553, 103.65604621867041 -0.9588731467255125, 103.67748121591342 -0.6250057626472757 M103.59739270250937 -1.872449005199798 C103.62934278855724 -1.374800625358942, 103.66129287460511 -0.8771522455180862, 103.67748121591342 -0.6250057626472757 M103.67748121591342 -0.6250057626472757 C103.67748121591342 -0.374096730666272, 103.67748121591342 -0.12318769868526835, 103.67748121591342 0.625005762647271 M103.67748121591342 -0.6250057626472757 C103.67748121591342 -0.2824110110635658, 103.67748121591342 0.06018374052014408, 103.67748121591342 0.625005762647271 M103.67748121591342 0.625005762647271 C103.65484337224773 0.9776084506789294, 103.63220552858203 1.3302111387105877, 103.59739270250937 1.8724490051997846 M103.67748121591342 0.625005762647271 C103.64697008366606 1.1002412755425364, 103.6164589514187 1.5754767884378018, 103.59739270250937 1.8724490051997846 M103.59739270250937 1.8724490051997846 C103.55895403799231 2.170571696621194, 103.52051537347526 2.468694388042603, 103.43754477658177 3.1121979531508885 M103.59739270250937 1.8724490051997846 C103.55976655270396 2.164269992966805, 103.52214040289856 2.4560909807338254, 103.43754477658177 3.1121979531508885 M103.43754477658177 3.1121979531508885 C103.38687409773605 3.37238117977187, 103.33620341889035 3.6325644063928513, 103.19859428754556 4.339158212148129 M103.43754477658177 3.1121979531508885 C103.3765101335772 3.4255979453030267, 103.31547549057262 3.7389979374551645, 103.19859428754556 4.339158212148129 M103.19859428754556 4.339158212148129 C103.0925280592391 4.743634710074793, 102.98646183093264 5.148111208001457, 102.88152313421489 5.548287939305125 M103.19859428754556 4.339158212148129 C103.13118636969739 4.596213817679628, 103.0637784518492 4.853269423211127, 102.88152313421489 5.548287939305125 M102.88152313421489 5.548287939305125 C102.72563744420529 6.017790800602263, 102.56975175419569 6.487293661899402, 102.48763422997033 6.734618561215495 M102.88152313421489 5.548287939305125 C102.76091698780185 5.911534436321321, 102.64031084138882 6.274780933337517, 102.48763422997033 6.734618561215495 M102.48763422997033 6.734618561215495 C102.34459838526648 7.087919863043932, 102.20156254056263 7.441221164872369, 102.01854614880834 7.893275190886679 M102.48763422997033 6.734618561215495 C102.3101948471293 7.1728972673899305, 102.13275546428827 7.611175973564367, 102.01854614880834 7.893275190886679 M102.01854614880834 7.893275190886679 C101.86122561873349 8.21995463770722, 101.70390508865863 8.54663408452776, 101.4761864742735 9.019496659696284 M102.01854614880834 7.893275190886679 C101.88118542657888 8.178507669644787, 101.74382470434942 8.463740148402897, 101.4761864742735 9.019496659696284 M101.4761864742735 9.019496659696284 C101.28544338381978 9.358180331629208, 101.09470029336605 9.696864003562133, 100.86278387860425 10.108655082055236 M101.4761864742735 9.019496659696284 C101.27583369134005 9.375243313713836, 101.0754809084066 9.73098996773139, 100.86278387860425 10.108655082055236 M100.86278387860425 10.108655082055236 C100.69119148689578 10.372267074728306, 100.51959909518729 10.635879067401376, 100.18085896464065 11.156274872382301 M100.86278387860425 10.108655082055236 C100.68519856780944 10.381473807769021, 100.50761325701461 10.654292533482806, 100.18085896464065 11.156274872382301 M100.18085896464065 11.156274872382301 C99.99000012074549 11.41200833560343, 99.79914127685035 11.667741798824556, 99.43321390812659 12.158051136245302 M100.18085896464065 11.156274872382301 C99.93871546797472 11.480725098188287, 99.6965719713088 11.805175323994273, 99.43321390812659 12.158051136245302 M99.43321390812659 12.158051136245302 C99.19480364571305 12.438101396404482, 98.95639338329951 12.718151656563665, 98.62292094296866 13.10986736009567 M99.43321390812659 12.158051136245302 C99.24632819835287 12.377577725043642, 99.05944248857917 12.597104313841983, 98.62292094296866 13.10986736009567 M98.62292094296866 13.10986736009567 C98.27765343435037 13.466384409733699, 97.93238592573206 13.822901459371728, 97.75330973676799 14.007812326905684 M98.62292094296866 13.10986736009567 C98.39149996685731 13.348828517946133, 98.16007899074596 13.587789675796596, 97.75330973676799 14.007812326905684 M97.75330973676799 14.007812326905684 C97.43940757127253 14.292889968212487, 97.12550540577706 14.57796760951929, 96.8279537085019 14.848196188198111 M97.75330973676799 14.007812326905684 C97.56595228584965 14.177965406623212, 97.37859483493132 14.348118486340741, 96.8279537085019 14.848196188198111 M96.8279537085019 14.848196188198111 C96.55065818317519 15.069331990502326, 96.27336265784848 15.290467792806538, 95.85065534457871 15.627565626425152 M96.8279537085019 14.848196188198111 C96.5556427971784 15.065356893480919, 96.28333188585489 15.282517598763729, 95.85065534457871 15.627565626425152 M95.85065534457871 15.627565626425152 C95.57747277207999 15.818125963117303, 95.30429019958125 16.008686299809455, 94.8254305736057 16.34271804539089 M95.85065534457871 15.627565626425152 C95.59757452183977 15.804103852675597, 95.34449369910082 15.980642078926042, 94.8254305736057 16.34271804539089 M94.8254305736057 16.34271804539089 C94.58575467069939 16.488010986224644, 94.34607876779306 16.6333039270584, 93.75649226407678 16.990714730406093 M94.8254305736057 16.34271804539089 C94.58470844121055 16.488645216689104, 94.3439863088154 16.63457238798732, 93.75649226407678 16.990714730406093 M93.75649226407678 16.990714730406093 C93.32061403182232 17.218112124979914, 92.88473579956785 17.445509519553735, 92.64823291279238 17.56889292409717 M93.75649226407678 16.990714730406093 C93.47126257244801 17.139518877830483, 93.18603288081925 17.288323025254872, 92.64823291279238 17.56889292409717 M92.64823291279238 17.56889292409717 C92.36757272020276 17.69313286586779, 92.08691252761314 17.817372807638403, 91.5052065951478 18.07487676824742 M92.64823291279238 17.56889292409717 C92.32958617700663 17.709948381709946, 92.01093944122088 17.851003839322722, 91.5052065951478 18.07487676824742 M91.5052065951478 18.07487676824742 C91.05100373800674 18.242027618280517, 90.59680088086567 18.409178468313616, 90.33211025146062 18.506587066708033 M91.5052065951478 18.07487676824742 C91.1087692266714 18.220769384473595, 90.71233185819501 18.366662000699773, 90.33211025146062 18.506587066708033 M90.33211025146062 18.506587066708033 C90.06595935480013 18.585579255782303, 89.79980845813964 18.664571444856573, 89.13376438623541 18.86224982926107 M90.33211025146062 18.506587066708033 C90.01617769143587 18.600354192159532, 89.70024513141112 18.694121317611028, 89.13376438623541 18.86224982926107 M89.13376438623541 18.86224982926107 C88.75831079027739 18.947944662474807, 88.38285719431936 19.03363949568854, 87.91509325967677 19.140403561325773 M89.13376438623541 18.86224982926107 C88.65044287516722 18.972564810194775, 88.167121364099 19.082879791128477, 87.91509325967677 19.140403561325773 M87.91509325967677 19.140403561325773 C87.62713468997424 19.18695846972322, 87.3391761202717 19.233513378120662, 86.68110465284788 19.3399052695533 M87.91509325967677 19.140403561325773 C87.64414093527219 19.184209031868846, 87.3731886108676 19.228014502411924, 86.68110465284788 19.3399052695533 M86.68110465284788 19.3399052695533 C86.29426950130778 19.377222791385034, 85.90743434976768 19.414540313216772, 85.4368692896239 19.45993515863156 M86.68110465284788 19.3399052695533 C86.30690837402979 19.37600353453401, 85.93271209521168 19.412101799514726, 85.4368692896239 19.45993515863156 M85.4368692896239 19.45993515863156 C85.15644640736005 19.468927774655732, 84.8760235250962 19.477920390679905, 84.1875 19.5 M85.4368692896239 19.45993515863156 C85.11266235944562 19.47033184385187, 84.78845542926736 19.480728529072177, 84.1875 19.5 M84.1875 19.5 C84.1875 19.5, 84.1875 19.5, 84.1875 19.5 M84.1875 19.5 C84.1875 19.5, 84.1875 19.5, 84.1875 19.5 M84.1875 19.5 C25.439864761987245 19.5, -33.30777047602551 19.5, -84.1875 19.5 M84.1875 19.5 C32.89219608097418 19.5, -18.40310783805164 19.5, -84.1875 19.5 M-84.1875 19.5 C-84.6447853345452 19.485335749373043, -85.10207066909041 19.470671498746086, -85.4368692896239 19.45993515863156 M-84.1875 19.5 C-84.62877744809235 19.485849091134124, -85.0700548961847 19.471698182268252, -85.4368692896239 19.45993515863156 M-85.4368692896239 19.45993515863156 C-85.88157308612823 19.41703511821735, -86.32627688263256 19.374135077803142, -86.68110465284786 19.3399052695533 M-85.4368692896239 19.45993515863156 C-85.86169510867045 19.418952722795936, -86.28652092771699 19.377970286960316, -86.68110465284786 19.3399052695533 M-86.68110465284786 19.3399052695533 C-86.95270204261035 19.295995509845714, -87.22429943237286 19.25208575013813, -87.91509325967675 19.140403561325773 M-86.68110465284786 19.3399052695533 C-86.99890279386271 19.28852613067541, -87.31670093487756 19.23714699179752, -87.91509325967675 19.140403561325773 M-87.91509325967675 19.140403561325773 C-88.36915943172342 19.036765920614805, -88.8232256037701 18.93312827990384, -89.13376438623538 18.862249829261074 M-87.91509325967675 19.140403561325773 C-88.27586660883595 19.058059398646307, -88.63663995799514 18.97571523596684, -89.13376438623538 18.862249829261074 M-89.13376438623538 18.862249829261074 C-89.51209347796062 18.74996374072695, -89.89042256968585 18.63767765219283, -90.33211025146059 18.506587066708043 M-89.13376438623538 18.862249829261074 C-89.42977499743164 18.77439543364943, -89.72578560862789 18.686541038037788, -90.33211025146059 18.506587066708043 M-90.33211025146059 18.506587066708043 C-90.69850706757073 18.37174965144447, -91.06490388368087 18.2369122361809, -91.5052065951478 18.074876768247425 M-90.33211025146059 18.506587066708043 C-90.71346265536738 18.366245856887367, -91.09481505927417 18.225904647066688, -91.5052065951478 18.074876768247425 M-91.5052065951478 18.074876768247425 C-91.85159769959672 17.921539701634916, -92.19798880404565 17.768202635022405, -92.64823291279238 17.568892924097174 M-91.5052065951478 18.074876768247425 C-91.89605355693018 17.901860412329548, -92.28690051871257 17.728844056411667, -92.64823291279238 17.568892924097174 M-92.64823291279238 17.568892924097174 C-92.88889774451668 17.443338235539787, -93.12956257624099 17.3177835469824, -93.75649226407678 16.990714730406097 M-92.64823291279238 17.568892924097174 C-92.90015288875894 17.43746643399787, -93.15207286472548 17.306039943898565, -93.75649226407678 16.990714730406097 M-93.75649226407678 16.990714730406097 C-94.11423930331839 16.773846372862877, -94.47198634255999 16.556978015319658, -94.82543057360569 16.3427180453909 M-93.75649226407678 16.990714730406097 C-94.16021281316907 16.745976961021064, -94.56393336226134 16.50123919163603, -94.82543057360569 16.3427180453909 M-94.82543057360569 16.3427180453909 C-95.22723362435268 16.062437630963526, -95.62903667509967 15.782157216536152, -95.85065534457871 15.627565626425156 M-94.82543057360569 16.3427180453909 C-95.17549267190321 16.098529879562538, -95.52555477020076 15.854341713734177, -95.85065534457871 15.627565626425156 M-95.85065534457871 15.627565626425156 C-96.16936253230566 15.373405125367366, -96.48806972003261 15.119244624309577, -96.82795370850187 14.848196188198125 M-95.85065534457871 15.627565626425156 C-96.13620535877013 15.399847088912503, -96.42175537296156 15.172128551399853, -96.82795370850187 14.848196188198125 M-96.82795370850187 14.848196188198125 C-97.12570046396971 14.577790462829688, -97.42344721943753 14.30738473746125, -97.75330973676797 14.007812326905697 M-96.82795370850187 14.848196188198125 C-97.02349650531482 14.67060939391149, -97.21903930212777 14.493022599624856, -97.75330973676797 14.007812326905697 M-97.75330973676797 14.007812326905697 C-97.99664023936516 13.756553605168293, -98.23997074196237 13.50529488343089, -98.62292094296865 13.109867360095677 M-97.75330973676797 14.007812326905697 C-97.97436561089228 13.779553987847565, -98.19542148501658 13.551295648789432, -98.62292094296865 13.109867360095677 M-98.62292094296865 13.109867360095677 C-98.86879072893632 12.8210547191109, -99.11466051490399 12.532242078126123, -99.43321390812658 12.158051136245307 M-98.62292094296865 13.109867360095677 C-98.91972159132186 12.76122843010468, -99.21652223967506 12.412589500113683, -99.43321390812658 12.158051136245307 M-99.43321390812658 12.158051136245307 C-99.62552403691615 11.90037308348043, -99.81783416570572 11.642695030715554, -100.18085896464063 11.156274872382316 M-99.43321390812658 12.158051136245307 C-99.59586034086617 11.940119733769107, -99.75850677360575 11.722188331292909, -100.18085896464063 11.156274872382316 M-100.18085896464063 11.156274872382316 C-100.41378496629633 10.79843798444997, -100.64671096795205 10.440601096517625, -100.86278387860425 10.108655082055249 M-100.18085896464063 11.156274872382316 C-100.37545506767567 10.85732300175026, -100.5700511707107 10.558371131118204, -100.86278387860425 10.108655082055249 M-100.86278387860425 10.108655082055249 C-101.01577177233482 9.83700958503253, -101.16875966606537 9.56536408800981, -101.4761864742735 9.019496659696289 M-100.86278387860425 10.108655082055249 C-101.06641898405951 9.747080332029027, -101.27005408951476 9.385505582002807, -101.4761864742735 9.019496659696289 M-101.4761864742735 9.019496659696289 C-101.6368669636737 8.685840185445064, -101.7975474530739 8.35218371119384, -102.01854614880834 7.893275190886686 M-101.4761864742735 9.019496659696289 C-101.62576246786024 8.708898908599851, -101.77533846144699 8.398301157503413, -102.01854614880834 7.893275190886686 M-102.01854614880834 7.893275190886686 C-102.18987126727221 7.470098835935095, -102.36119638573608 7.046922480983502, -102.48763422997033 6.73461856121551 M-102.01854614880834 7.893275190886686 C-102.11803658321158 7.647531894393986, -102.21752701761483 7.401788597901286, -102.48763422997033 6.73461856121551 M-102.48763422997033 6.73461856121551 C-102.62639317971818 6.316698712811274, -102.76515212946603 5.898778864407037, -102.88152313421489 5.5482879393051325 M-102.48763422997033 6.73461856121551 C-102.59414698922772 6.41381910083579, -102.70065974848511 6.09301964045607, -102.88152313421489 5.5482879393051325 M-102.88152313421489 5.5482879393051325 C-102.97979765267893 5.173524607956015, -103.07807217114296 4.798761276606897, -103.19859428754556 4.339158212148136 M-102.88152313421489 5.5482879393051325 C-102.98546133560899 5.1519265302880015, -103.08939953700308 4.7555651212708705, -103.19859428754556 4.339158212148136 M-103.19859428754556 4.339158212148136 C-103.27204396131924 3.962009660914321, -103.34549363509292 3.5848611096805065, -103.43754477658177 3.112197953150904 M-103.19859428754556 4.339158212148136 C-103.26212331560944 4.012950079904911, -103.32565234367333 3.6867419476616865, -103.43754477658177 3.112197953150904 M-103.43754477658177 3.112197953150904 C-103.48228398632898 2.765209477107803, -103.52702319607619 2.418221001064702, -103.59739270250937 1.872449005199809 M-103.43754477658177 3.112197953150904 C-103.47948203289886 2.786940874603551, -103.52141928921594 2.4616837960561977, -103.59739270250937 1.872449005199809 M-103.59739270250937 1.872449005199809 C-103.6265173189694 1.4188095948673844, -103.65564193542946 0.9651701845349598, -103.67748121591342 0.6250057626472781 M-103.59739270250937 1.872449005199809 C-103.62565828501776 1.4321897420640308, -103.65392386752616 0.9919304789282525, -103.67748121591342 0.6250057626472781 M-103.67748121591342 0.6250057626472781 C-103.67748121591342 0.26704729216864326, -103.67748121591342 -0.09091117830999162, -103.67748121591342 -0.6250057626472687 M-103.67748121591342 0.6250057626472781 C-103.67748121591342 0.14005739554834, -103.67748121591342 -0.3448909715505981, -103.67748121591342 -0.6250057626472687 M-103.67748121591342 -0.6250057626472687 C-103.65667437636309 -0.9490890836223278, -103.63586753681275 -1.273172404597387, -103.59739270250937 -1.8724490051997822 M-103.67748121591342 -0.6250057626472687 C-103.65948582688361 -0.9052984724029982, -103.64149043785382 -1.1855911821587277, -103.59739270250937 -1.8724490051997822 M-103.59739270250937 -1.8724490051997822 C-103.55025200039665 -2.2380629818014075, -103.50311129828394 -2.6036769584030326, -103.43754477658177 -3.112197953150895 M-103.59739270250937 -1.8724490051997822 C-103.54131227735915 -2.30739770833229, -103.48523185220894 -2.7423464114647977, -103.43754477658177 -3.112197953150895 M-103.43754477658177 -3.112197953150895 C-103.36809648297962 -3.468800262895889, -103.29864818937747 -3.8254025726408822, -103.19859428754556 -4.339158212148126 M-103.43754477658177 -3.112197953150895 C-103.38903308573029 -3.361295232723801, -103.34052139487879 -3.610392512296706, -103.19859428754556 -4.339158212148126 M-103.19859428754556 -4.339158212148126 C-103.13101066633224 -4.596883850761204, -103.06342704511894 -4.854609489374281, -102.88152313421489 -5.548287939305123 M-103.19859428754556 -4.339158212148126 C-103.11660939096711 -4.651802155280696, -103.03462449438867 -4.964446098413266, -102.88152313421489 -5.548287939305123 M-102.88152313421489 -5.548287939305123 C-102.78681411690316 -5.833536409615371, -102.69210509959143 -6.118784879925618, -102.48763422997033 -6.734618561215485 M-102.88152313421489 -5.548287939305123 C-102.75210293103328 -5.938080970979029, -102.62268272785167 -6.327874002652934, -102.48763422997033 -6.734618561215485 M-102.48763422997033 -6.734618561215485 C-102.30313346021956 -7.190339029579621, -102.11863269046877 -7.646059497943758, -102.01854614880834 -7.893275190886676 M-102.48763422997033 -6.734618561215485 C-102.32503953848031 -7.136230592750337, -102.1624448469903 -7.537842624285189, -102.01854614880834 -7.893275190886676 M-102.01854614880834 -7.893275190886676 C-101.84728890950036 -8.248894512627594, -101.6760316701924 -8.60451383436851, -101.4761864742735 -9.019496659696282 M-102.01854614880834 -7.893275190886676 C-101.8697533566602 -8.202246607438038, -101.72096056451205 -8.511218023989398, -101.4761864742735 -9.019496659696282 M-101.4761864742735 -9.019496659696282 C-101.24628935933407 -9.427702266878494, -101.01639224439462 -9.835907874060707, -100.86278387860425 -10.108655082055243 M-101.4761864742735 -9.019496659696282 C-101.30020391921497 -9.331971506368768, -101.12422136415643 -9.644446353041255, -100.86278387860425 -10.108655082055243 M-100.86278387860425 -10.108655082055243 C-100.62961628095526 -10.466863126310866, -100.39644868330629 -10.82507117056649, -100.18085896464063 -11.156274872382308 M-100.86278387860425 -10.108655082055243 C-100.62699786996856 -10.470885708728247, -100.39121186133288 -10.833116335401249, -100.18085896464063 -11.156274872382308 M-100.18085896464063 -11.156274872382308 C-99.94970463589587 -11.466000614307738, -99.7185503071511 -11.775726356233166, -99.43321390812659 -12.158051136245302 M-100.18085896464063 -11.156274872382308 C-99.92094846429575 -11.504531264510778, -99.66103796395085 -11.852787656639247, -99.43321390812659 -12.158051136245302 M-99.43321390812659 -12.158051136245302 C-99.12317326206698 -12.522242520919447, -98.81313261600738 -12.88643390559359, -98.62292094296866 -13.10986736009567 M-99.43321390812659 -12.158051136245302 C-99.14441434126506 -12.497291540641733, -98.85561477440353 -12.836531945038164, -98.62292094296866 -13.10986736009567 M-98.62292094296866 -13.10986736009567 C-98.40798029919206 -13.331811221750057, -98.19303965541545 -13.553755083404445, -97.75330973676799 -14.007812326905677 M-98.62292094296866 -13.10986736009567 C-98.32886860044324 -13.41350054589946, -98.03481625791784 -13.71713373170325, -97.75330973676799 -14.007812326905677 M-97.75330973676799 -14.007812326905677 C-97.4232797129127 -14.30753686245513, -97.09324968905742 -14.607261398004582, -96.8279537085019 -14.848196188198107 M-97.75330973676799 -14.007812326905677 C-97.49461902750554 -14.242748384476743, -97.23592831824308 -14.477684442047808, -96.8279537085019 -14.848196188198107 M-96.8279537085019 -14.848196188198107 C-96.57479967420653 -15.05007979383688, -96.32164563991117 -15.251963399475654, -95.85065534457871 -15.627565626425149 M-96.8279537085019 -14.848196188198107 C-96.59137837957465 -15.036858717483684, -96.3548030506474 -15.22552124676926, -95.85065534457871 -15.627565626425149 M-95.85065534457871 -15.627565626425149 C-95.63700690590373 -15.776597528552967, -95.42335846722875 -15.925629430680784, -94.82543057360571 -16.342718045390885 M-95.85065534457871 -15.627565626425149 C-95.6432212604161 -15.77226266386021, -95.4357871762535 -15.916959701295273, -94.82543057360571 -16.342718045390885 M-94.82543057360571 -16.342718045390885 C-94.59403279623818 -16.482992737875364, -94.36263501887065 -16.623267430359842, -93.75649226407678 -16.99071473040609 M-94.82543057360571 -16.342718045390885 C-94.43291615639917 -16.58066259177224, -94.04040173919265 -16.81860713815359, -93.75649226407678 -16.99071473040609 M-93.75649226407678 -16.99071473040609 C-93.47216527349497 -17.139047939272494, -93.18783828291316 -17.2873811481389, -92.6482329127924 -17.56889292409717 M-93.75649226407678 -16.99071473040609 C-93.50905145632679 -17.119804441315864, -93.26161064857678 -17.248894152225642, -92.6482329127924 -17.56889292409717 M-92.6482329127924 -17.56889292409717 C-92.39664226727007 -17.68026463969857, -92.14505162174774 -17.79163635529997, -91.50520659514781 -18.07487676824742 M-92.6482329127924 -17.56889292409717 C-92.22806875280928 -17.75488713399473, -91.80790459282616 -17.940881343892286, -91.50520659514781 -18.07487676824742 M-91.50520659514781 -18.07487676824742 C-91.13808724435725 -18.209980082952423, -90.7709678935667 -18.345083397657422, -90.33211025146062 -18.506587066708033 M-91.50520659514781 -18.07487676824742 C-91.08541983603692 -18.229362176066488, -90.66563307692604 -18.383847583885558, -90.33211025146062 -18.506587066708033 M-90.33211025146062 -18.506587066708033 C-90.04072988433829 -18.59306723018318, -89.74934951721596 -18.679547393658332, -89.13376438623541 -18.862249829261067 M-90.33211025146062 -18.506587066708033 C-90.03551173397608 -18.594615949820056, -89.73891321649154 -18.68264483293208, -89.13376438623541 -18.862249829261067 M-89.13376438623541 -18.862249829261067 C-88.77921620225216 -18.943173138612124, -88.4246680182689 -19.02409644796318, -87.91509325967677 -19.140403561325773 M-89.13376438623541 -18.862249829261067 C-88.70916395390813 -18.959162107163007, -88.28456352158084 -19.05607438506495, -87.91509325967677 -19.140403561325773 M-87.91509325967677 -19.140403561325773 C-87.64125829958681 -19.184675074051285, -87.36742333949685 -19.228946586776797, -86.68110465284788 -19.3399052695533 M-87.91509325967677 -19.140403561325773 C-87.58639702873742 -19.193544618866703, -87.25770079779808 -19.246685676407637, -86.68110465284788 -19.3399052695533 M-86.68110465284788 -19.3399052695533 C-86.18913489064163 -19.38736500083313, -85.69716512843537 -19.434824732112965, -85.4368692896239 -19.45993515863156 M-86.68110465284788 -19.3399052695533 C-86.34330815042716 -19.372492091882094, -86.00551164800646 -19.405078914210886, -85.4368692896239 -19.45993515863156 M-85.4368692896239 -19.45993515863156 C-85.18270412621389 -19.46808574071964, -84.92853896280388 -19.47623632280772, -84.1875 -19.5 M-85.4368692896239 -19.45993515863156 C-85.02344441483217 -19.47319288968343, -84.61001954004043 -19.486450620735297, -84.1875 -19.5 M-84.1875 -19.5 C-84.1875 -19.5, -84.1875 -19.5, -84.1875 -19.5 M-84.1875 -19.5 C-84.1875 -19.5, -84.1875 -19.5, -84.1875 -19.5" stroke="#9370DB" stroke-width="1.3" fill="none" stroke-dasharray="0 0" style=""/></g><g class="label" style="" transform="translate(-91.3125, -12)"><rect/><foreignObject width="182.625" height="24"><div xmlns="http://www.w3.org/1999/xhtml" style="display: table-cell; white-space: nowrap; line-height: 1.5; max-width: 200px; text-align: center;"><span class="nodeLabel"><p>🚨 Alert / Issue Detected</p></span></div></foreignObject></g></g><g class="node default" id="flowchart-A1-1" transform="translate(2286.5703125, 202.546875)"><polygon points="105.546875,0 211.09375,-105.546875 105.546875,-211.09375 0,-105.546875" class="label-container" transform="translate(-105.046875, 105.546875)"/><g class="label" style="" transform="translate(-78.546875, -12)"><rect/><foreignObject width="157.09375" height="24"><div xmlns="http://www.w3.org/1999/xhtml" style="display: table-cell; white-space: nowrap; line-height: 1.5; max-width: 200px; text-align: center;"><span class="nodeLabel"><p>What is the symptom?</p></span></div></foreignObject></g></g><g class="node default" id="flowchart-B1-2" transform="translate(603, 445.09375)"><rect class="basic label-container" style="" x="-130" y="-39" width="260" height="78"/><g class="label" style="" transform="translate(-100, -24)"><rect/><foreignObject width="200" height="48"><div xmlns="http://www.w3.org/1999/xhtml" style="display: table; white-space: break-spaces; line-height: 1.5; max-width: 200px; text-align: center; width: 200px;"><span class="nodeLabel"><p>Bot container not healthy\nor crash-looping</p></span></div></foreignObject></g></g><g class="node default" id="flowchart-B1A-3" transform="translate(603, 709.09375)"><polygon points="151,0 302,-151 151,-302 0,-151" class="label-container" transform="translate(-150.5, 151)"/><g class="label" style="" transform="translate(-100, -36)"><rect/><foreignObject width="200" height="72"><div xmlns="http://www.w3.org/1999/xhtml" style="display: table; white-space: break-spaces; line-height: 1.5; max-width: 200px; text-align: center; width: 200px;"><span class="nodeLabel"><p>Check docker logs\nagentshroud-bot --tail 50</p></span></div></foreignObject></g></g><g class="node default" id="flowchart-B1B-4" transform="translate(138, 1041.6015625)"><rect class="basic label-container" style="" x="-130" y="-51" width="260" height="102"/><g class="label" style="" transform="translate(-100, -36)"><rect/><foreignObject width="200" height="72"><div xmlns="http://www.w3.org/1999/xhtml" style="display: table; white-space: break-spaces; line-height: 1.5; max-width: 200px; text-align: center; width: 200px;"><span class="nodeLabel"><p>Config invalid\n(mcpServers or\nduplicate key)</p></span></div></foreignObject></g></g><g class="node default" id="flowchart-B1C-5" transform="translate(448, 1041.6015625)"><rect class="basic label-container" style="" x="-130" y="-39" width="260" height="78"/><g class="label" style="" transform="translate(-100, -24)"><rect/><foreignObject width="200" height="48"><div xmlns="http://www.w3.org/1999/xhtml" style="display: table; white-space: break-spaces; line-height: 1.5; max-width: 200px; text-align: center; width: 200px;"><span class="nodeLabel"><p>Secret loading failed\n(op-proxy timeout)</p></span></div></foreignObject></g></g><g class="node default" id="flowchart-B1D-6" transform="translate(758, 1041.6015625)"><rect class="basic label-container" style="" x="-105.4296875" y="-27" width="210.859375" height="54"/><g class="label" style="" transform="translate(-75.4296875, -12)"><rect/><foreignObject width="150.859375" height="24"><div xmlns="http://www.w3.org/1999/xhtml" style="display: table-cell; white-space: nowrap; line-height: 1.5; max-width: 200px; text-align: center;"><span class="nodeLabel"><p>OOM / resource limit</p></span></div></foreignObject></g></g><g class="node default" id="flowchart-B1E-7" transform="translate(1068, 1041.6015625)"><rect class="basic label-container" style="" x="-130" y="-39" width="260" height="78"/><g class="label" style="" transform="translate(-100, -24)"><rect/><foreignObject width="200" height="48"><div xmlns="http://www.w3.org/1999/xhtml" style="display: table; white-space: break-spaces; line-height: 1.5; max-width: 200px; text-align: center; width: 200px;"><span class="nodeLabel"><p>OpenClaw crash\n(Node.js error)</p></span></div></foreignObject></g></g><g class="node default" id="flowchart-B1B_FIX-8" transform="translate(138, 1310.109375)"><rect class="basic label-container" style="" x="-130" y="-75" width="260" height="150"/><g class="label" style="" transform="translate(-100, -60)"><rect/><foreignObject width="200" height="120"><div xmlns="http://www.w3.org/1999/xhtml" style="display: table; white-space: break-spaces; line-height: 1.5; max-width: 200px; text-align: center; width: 200px;"><span class="nodeLabel"><p>Fix apply-patches.js\nRebuild image\ndocker compose build agentshroud\ndocker compose up -d agentshroud</p></span></div></foreignObject></g></g><g class="node default" id="flowchart-B1C_FIX-9" transform="translate(448, 1310.109375)"><rect class="basic label-container" style="" x="-130" y="-87" width="260" height="174"/><g class="label" style="" transform="translate(-100, -72)"><rect/><foreignObject width="200" height="144"><div xmlns="http://www.w3.org/1999/xhtml" style="display: table; white-space: break-spaces; line-height: 1.5; max-width: 200px; text-align: center; width: 200px;"><span class="nodeLabel"><p>Check gateway health\ndocker ps | grep gateway\nCheck 1Password service account\nWait for op-proxy retry (2 min)</p></span></div></foreignObject></g></g><g class="node default" id="flowchart-B1D_FIX-10" transform="translate(758, 1310.109375)"><rect class="basic label-container" style="" x="-130" y="-63" width="260" height="126"/><g class="label" style="" transform="translate(-100, -48)"><rect/><foreignObject width="200" height="96"><div xmlns="http://www.w3.org/1999/xhtml" style="display: table; white-space: break-spaces; line-height: 1.5; max-width: 200px; text-align: center; width: 200px;"><span class="nodeLabel"><p>Increase mem_limit in\ndocker-compose.yml\n(currently 4g)</p></span></div></foreignObject></g></g><g class="node default" id="flowchart-B1E_FIX-11" transform="translate(1068, 1310.109375)"><rect class="basic label-container" style="" x="-130" y="-63" width="260" height="126"/><g class="label" style="" transform="translate(-100, -48)"><rect/><foreignObject width="200" height="96"><div xmlns="http://www.w3.org/1999/xhtml" style="display: table; white-space: break-spaces; line-height: 1.5; max-width: 200px; text-align: center; width: 200px;"><span class="nodeLabel"><p>Check openclaw.json validity\nRun openclaw doctor --fix\nRestart container</p></span></div></foreignObject></g></g><g class="node default" id="flowchart-B2-12" transform="translate(1746.38671875, 445.09375)"><rect class="basic label-container" style="" x="-130" y="-51" width="260" height="102"/><g class="label" style="" transform="translate(-100, -36)"><rect/><foreignObject width="200" height="72"><div xmlns="http://www.w3.org/1999/xhtml" style="display: table; white-space: break-spaces; line-height: 1.5; max-width: 200px; text-align: center; width: 200px;"><span class="nodeLabel"><p>⚠️ Context limit exceeded\nBot resets mid-conversation</p></span></div></foreignObject></g></g><g class="node default" id="flowchart-B2A-13" transform="translate(1746.38671875, 709.09375)"><polygon points="111.7890625,0 223.578125,-111.7890625 111.7890625,-223.578125 0,-111.7890625" class="label-container" transform="translate(-111.2890625, 111.7890625)"/><g class="label" style="" transform="translate(-84.7890625, -12)"><rect/><foreignObject width="169.578125" height="24"><div xmlns="http://www.w3.org/1999/xhtml" style="display: table-cell; white-space: nowrap; line-height: 1.5; max-width: 200px; text-align: center;"><span class="nodeLabel"><p>reserveTokensFloor set?</p></span></div></foreignObject></g></g><g class="node default" id="flowchart-B2B-14" transform="translate(1520.2578125, 1041.6015625)"><rect class="basic label-container" style="" x="-272.2578125" y="-51" width="544.515625" height="102"/><g class="label" style="" transform="translate(-242.2578125, -36)"><rect/><foreignObject width="484.515625" height="72"><div xmlns="http://www.w3.org/1999/xhtml" style="display: table; white-space: break-spaces; line-height: 1.5; max-width: 200px; text-align: center; width: 200px;"><span class="nodeLabel"><p>Check openclaw.json:\nagents.defaults.compaction.\nreserveTokensFloor = 4000</p></span></div></foreignObject></g></g><g class="node default" id="flowchart-B2C-15" transform="translate(1972.515625, 1041.6015625)"><rect class="basic label-container" style="" x="-130" y="-75" width="260" height="150"/><g class="label" style="" transform="translate(-100, -60)"><rect/><foreignObject width="200" height="120"><div xmlns="http://www.w3.org/1999/xhtml" style="display: table; white-space: break-spaces; line-height: 1.5; max-width: 200px; text-align: center; width: 200px;"><span class="nodeLabel"><p>If session &gt; 196K tokens:\nBot should auto-compact.\nIf reset persists: check logs\nfor compaction errors</p></span></div></foreignObject></g></g><g class="node default" id="flowchart-B3-16" transform="translate(2286.5703125, 445.09375)"><rect class="basic label-container" style="" x="-130" y="-51" width="260" height="102"/><g class="label" style="" transform="translate(-100, -36)"><rect/><foreignObject width="200" height="72"><div xmlns="http://www.w3.org/1999/xhtml" style="display: table; white-space: break-spaces; line-height: 1.5; max-width: 200px; text-align: center; width: 200px;"><span class="nodeLabel"><p>Gateway not healthy\n/status returns error</p></span></div></foreignObject></g></g><g class="node default" id="flowchart-B3A-17" transform="translate(2286.5703125, 709.09375)"><rect class="basic label-container" style="" x="-130" y="-51" width="260" height="102"/><g class="label" style="" transform="translate(-100, -36)"><rect/><foreignObject width="200" height="72"><div xmlns="http://www.w3.org/1999/xhtml" style="display: table; white-space: break-spaces; line-height: 1.5; max-width: 200px; text-align: center; width: 200px;"><span class="nodeLabel"><p>Check gateway logs\ndocker logs agentshroud-gateway</p></span></div></foreignObject></g></g><g class="node default" id="flowchart-B3B-18" transform="translate(2286.5703125, 1041.6015625)"><rect class="basic label-container" style="" x="-134.0546875" y="-39" width="268.109375" height="78"/><g class="label" style="" transform="translate(-104.0546875, -24)"><rect/><foreignObject width="208.109375" height="48"><div xmlns="http://www.w3.org/1999/xhtml" style="display: table; white-space: break-spaces; line-height: 1.5; max-width: 200px; text-align: center; width: 200px;"><span class="nodeLabel"><p>Check port 8080\ncurl http://localhost:8080/status</p></span></div></foreignObject></g></g><g class="node default" id="flowchart-B3C-19" transform="translate(2286.5703125, 1310.109375)"><rect class="basic label-container" style="" x="-130" y="-39" width="260" height="78"/><g class="label" style="" transform="translate(-100, -24)"><rect/><foreignObject width="200" height="48"><div xmlns="http://www.w3.org/1999/xhtml" style="display: table; white-space: break-spaces; line-height: 1.5; max-width: 200px; text-align: center; width: 200px;"><span class="nodeLabel"><p>Restart gateway\ndocker compose restart gateway</p></span></div></foreignObject></g></g><g class="node default" id="flowchart-B4-20" transform="translate(2784.04296875, 445.09375)"><rect class="basic label-container" style="" x="-130" y="-63" width="260" height="126"/><g class="label" style="" transform="translate(-100, -48)"><rect/><foreignObject width="200" height="96"><div xmlns="http://www.w3.org/1999/xhtml" style="display: table; white-space: break-spaces; line-height: 1.5; max-width: 200px; text-align: center; width: 200px;"><span class="nodeLabel"><p>🔒 Security alert\n(blocked domain, HIGH MCP threat,\ncanary token triggered)</p></span></div></foreignObject></g></g><g class="node default" id="flowchart-B4A-21" transform="translate(2784.04296875, 709.09375)"><rect class="basic label-container" style="" x="-130" y="-63" width="260" height="126"/><g class="label" style="" transform="translate(-100, -48)"><rect/><foreignObject width="200" height="96"><div xmlns="http://www.w3.org/1999/xhtml" style="display: table; white-space: break-spaces; line-height: 1.5; max-width: 200px; text-align: center; width: 200px;"><span class="nodeLabel"><p>Review gateway logs\nfor blocked_domain or\nThreatLevel.HIGH entries</p></span></div></foreignObject></g></g><g class="node default" id="flowchart-B4B-22" transform="translate(2784.04296875, 1041.6015625)"><polygon points="107.5078125,0 215.015625,-107.5078125 107.5078125,-215.015625 0,-107.5078125" class="label-container" transform="translate(-107.0078125, 107.5078125)"/><g class="label" style="" transform="translate(-80.5078125, -12)"><rect/><foreignObject width="161.015625" height="24"><div xmlns="http://www.w3.org/1999/xhtml" style="display: table-cell; white-space: nowrap; line-height: 1.5; max-width: 200px; text-align: center;"><span class="nodeLabel"><p>Legitimate bot action?</p></span></div></foreignObject></g></g><g class="node default" id="flowchart-B4C-23" transform="translate(2609.703125, 1310.109375)"><rect class="basic label-container" style="" x="-143.1328125" y="-51" width="286.265625" height="102"/><g class="label" style="" transform="translate(-113.1328125, -36)"><rect/><foreignObject width="226.265625" height="72"><div xmlns="http://www.w3.org/1999/xhtml" style="display: table; white-space: break-spaces; line-height: 1.5; max-width: 200px; text-align: center; width: 200px;"><span class="nodeLabel"><p>Update allowlist in\nagentshroud.yaml\nRestart containers</p></span></div></foreignObject></g></g><g class="node default" id="flowchart-B4D-24" transform="translate(2958.3828125, 1310.109375)"><rect class="basic label-container" style="" x="-155.546875" y="-51" width="311.09375" height="102"/><g class="label" style="" transform="translate(-125.546875, -36)"><rect/><foreignObject width="251.09375" height="72"><div xmlns="http://www.w3.org/1999/xhtml" style="display: table; white-space: break-spaces; line-height: 1.5; max-width: 200px; text-align: center; width: 200px;"><span class="nodeLabel"><p>Kill switch:\nGateway kill_switch_enabled=true\nAction: freeze/shutdown/disconnect</p></span></div></foreignObject></g></g><g class="node default" id="flowchart-B5-25" transform="translate(3270.390625, 445.09375)"><rect class="basic label-container" style="" x="-130" y="-39" width="260" height="78"/><g class="label" style="" transform="translate(-100, -24)"><rect/><foreignObject width="200" height="48"><div xmlns="http://www.w3.org/1999/xhtml" style="display: table; white-space: break-spaces; line-height: 1.5; max-width: 200px; text-align: center; width: 200px;"><span class="nodeLabel"><p>Bot not responding\non Telegram</p></span></div></foreignObject></g></g><g class="node default" id="flowchart-B5A-26" transform="translate(3270.390625, 709.09375)"><rect class="basic label-container" style="" x="-130" y="-63" width="260" height="126"/><g class="label" style="" transform="translate(-100, -48)"><rect/><foreignObject width="200" height="96"><div xmlns="http://www.w3.org/1999/xhtml" style="display: table; white-space: break-spaces; line-height: 1.5; max-width: 200px; text-align: center; width: 200px;"><span class="nodeLabel"><p>Check Telegram provider\ndocker logs agentshroud-bot | grep telegram</p></span></div></foreignObject></g></g><g class="node default" id="flowchart-B5B-27" transform="translate(3270.390625, 1041.6015625)"><rect class="basic label-container" style="" x="-131.96875" y="-51" width="263.9375" height="102"/><g class="label" style="" transform="translate(-101.96875, -36)"><rect/><foreignObject width="203.9375" height="72"><div xmlns="http://www.w3.org/1999/xhtml" style="display: table; white-space: break-spaces; line-height: 1.5; max-width: 200px; text-align: center; width: 200px;"><span class="nodeLabel"><p>Check bot token\nopenclaw.json channels.telegram.botToken</p></span></div></foreignObject></g></g><g class="node default" id="flowchart-B5C-28" transform="translate(3270.390625, 1310.109375)"><rect class="basic label-container" style="" x="-106.4609375" y="-27" width="212.921875" height="54"/><g class="label" style="" transform="translate(-76.4609375, -12)"><rect/><foreignObject width="152.921875" height="24"><div xmlns="http://www.w3.org/1999/xhtml" style="display: table-cell; white-space: nowrap; line-height: 1.5; max-width: 200px; text-align: center;"><span class="nodeLabel"><p>Restart bot container</p></span></div></foreignObject></g></g></g></g></g></svg>